<svg xmlns="http://www.w3.org/2000/svg" width="32" height="32" fill="none" viewBox="0 0 32 32"><path fill="url(#a)" d="M16.58 28.98h2.8L19.04 30h-2.47z"/><path fill="url(#b)" d="M16.58 28.98h2.8L19.04 30h-2.47z"/><path fill="url(#c)" d="M16.58 28.98h2.8L19.04 30h-2.47z"/><path fill="url(#d)" d="M16.58 28.98h2.8L19.04 30h-2.47z"/><path fill="url(#e)" d="M10.91 24.96h2.38v1.02h-2.38z"/><path fill="url(#f)" d="M10.91 24.96h2.38v1.02h-2.38z"/><path fill="url(#g)" d="M10.91 24.96h2.38v1.02h-2.38z"/><path fill="url(#h)" d="M10.91 24.96h2.38v1.02h-2.38z"/><path fill="url(#i)" d="M17 16h-1v13.67c0 .18.15.33.33.33h.35c.17 0 .32-.15.32-.33z"/><path fill="url(#j)" d="M17 16h-1v13.67c0 .18.15.33.33.33h.35c.17 0 .32-.15.32-.33z"/><path fill="url(#k)" d="M13.75 30h-.49a.25.25 0 0 1-.26-.26V11h1v18.74q-.02.24-.25.26"/><path fill="url(#l)" d="M13.75 30h-.49a.25.25 0 0 1-.26-.26V11h1v18.74q-.02.24-.25.26"/><g filter="url(#m)"><path stroke="url(#n)" stroke-linecap="round" stroke-width=".25" d="M13.61 12.58v17"/></g><g filter="url(#o)"><path stroke="url(#p)" stroke-linecap="round" stroke-width=".25" d="M16.58 21.88v7.75"/></g><g filter="url(#q)"><path fill="url(#r)" d="M19.04 30v-5.41a4 4 0 0 1 3.52-3.7c.25-.03.47.16.47.41V26a4 4 0 0 1-4 4"/></g><path fill="url(#s)" d="M19.04 30v-5.41a4 4 0 0 1 3.52-3.7c.25-.03.47.16.47.41V26a4 4 0 0 1-4 4"/><path fill="url(#t)" d="M19.04 30v-5.41a4 4 0 0 1 3.52-3.7c.25-.03.47.16.47.41V26a4 4 0 0 1-4 4"/><path fill="url(#u)" d="M19.04 30v-5.41a4 4 0 0 1 3.52-3.7c.25-.03.47.16.47.41V26a4 4 0 0 1-4 4"/><g filter="url(#v)"><path fill="url(#w)" d="M11 17.81a4 4 0 0 0-3.53-3.79.42.42 0 0 0-.47.41v7.55a4 4 0 0 0 4 4z"/></g><path fill="url(#x)" d="M11 17.81a4 4 0 0 0-3.53-3.79.42.42 0 0 0-.47.41v7.55a4 4 0 0 0 4 4z"/><path fill="url(#y)" d="M11 17.81a4 4 0 0 0-3.53-3.79.42.42 0 0 0-.47.41v7.55a4 4 0 0 0 4 4z"/><g filter="url(#z)"><path fill="#ffde50" d="M21.23 17h-2.19a.76.76 0 0 1-.77-.74.74.74 0 0 1 .75-.76h4.21c.41 0 .77-.32.77-.74a.74.74 0 0 0-.75-.76h-3.21a.76.76 0 0 1-.77-.74.74.74 0 0 1 .75-.76h4.21c.41 0 .77-.32.77-.74a.74.74 0 0 0-.75-.76h-4.43a4.06 4.06 0 0 0-4.06 4.06v6.16c0 .41.32.77.74.77.42.01.76-.33.76-.75v-1.81c0-.52.42-.94.94-.94h3.06c.42 0 .76-.34.75-.76a.8.8 0 0 0-.78-.73"/><path fill="url(#A)" d="M21.23 17h-2.19a.76.76 0 0 1-.77-.74.74.74 0 0 1 .75-.76h4.21c.41 0 .77-.32.77-.74a.74.74 0 0 0-.75-.76h-3.21a.76.76 0 0 1-.77-.74.74.74 0 0 1 .75-.76h4.21c.41 0 .77-.32.77-.74a.74.74 0 0 0-.75-.76h-4.43a4.06 4.06 0 0 0-4.06 4.06v6.16c0 .41.32.77.74.77.42.01.76-.33.76-.75v-1.81c0-.52.42-.94.94-.94h3.06c.42 0 .76-.34.75-.76a.8.8 0 0 0-.78-.73"/><path fill="url(#B)" d="M21.23 17h-2.19a.76.76 0 0 1-.77-.74.74.74 0 0 1 .75-.76h4.21c.41 0 .77-.32.77-.74a.74.74 0 0 0-.75-.76h-3.21a.76.76 0 0 1-.77-.74.74.74 0 0 1 .75-.76h4.21c.41 0 .77-.32.77-.74a.74.74 0 0 0-.75-.76h-4.43a4.06 4.06 0 0 0-4.06 4.06v6.16c0 .41.32.77.74.77.42.01.76-.33.76-.75v-1.81c0-.52.42-.94.94-.94h3.06c.42 0 .76-.34.75-.76a.8.8 0 0 0-.78-.73"/><path fill="url(#C)" d="M21.23 17h-2.19a.76.76 0 0 1-.77-.74.74.74 0 0 1 .75-.76h4.21c.41 0 .77-.32.77-.74a.74.74 0 0 0-.75-.76h-3.21a.76.76 0 0 1-.77-.74.74.74 0 0 1 .75-.76h4.21c.41 0 .77-.32.77-.74a.74.74 0 0 0-.75-.76h-4.43a4.06 4.06 0 0 0-4.06 4.06v6.16c0 .41.32.77.74.77.42.01.76-.33.76-.75v-1.81c0-.52.42-.94.94-.94h3.06c.42 0 .76-.34.75-.76a.8.8 0 0 0-.78-.73"/></g><path fill="url(#D)" d="M21.23 17h-2.19a.76.76 0 0 1-.77-.74.74.74 0 0 1 .75-.76h4.21c.41 0 .77-.32.77-.74a.74.74 0 0 0-.75-.76h-3.21a.76.76 0 0 1-.77-.74.74.74 0 0 1 .75-.76h4.21c.41 0 .77-.32.77-.74a.74.74 0 0 0-.75-.76h-4.43a4.06 4.06 0 0 0-4.06 4.06v6.16c0 .41.32.77.74.77.42.01.76-.33.76-.75v-1.81c0-.52.42-.94.94-.94h3.06c.42 0 .76-.34.75-.76a.8.8 0 0 0-.78-.73"/><path fill="url(#E)" d="M21.23 17h-2.19a.76.76 0 0 1-.77-.74.74.74 0 0 1 .75-.76h4.21c.41 0 .77-.32.77-.74a.74.74 0 0 0-.75-.76h-3.21a.76.76 0 0 1-.77-.74.74.74 0 0 1 .75-.76h4.21c.41 0 .77-.32.77-.74a.74.74 0 0 0-.75-.76h-4.43a4.06 4.06 0 0 0-4.06 4.06v6.16c0 .41.32.77.74.77.42.01.76-.33.76-.75v-1.81c0-.52.42-.94.94-.94h3.06c.42 0 .76-.34.75-.76a.8.8 0 0 0-.78-.73"/><path fill="url(#F)" d="M21.23 17h-2.19a.76.76 0 0 1-.77-.74.74.74 0 0 1 .75-.76h4.21c.41 0 .77-.32.77-.74a.74.74 0 0 0-.75-.76h-3.21a.76.76 0 0 1-.77-.74.74.74 0 0 1 .75-.76h4.21c.41 0 .77-.32.77-.74a.74.74 0 0 0-.75-.76h-4.43a4.06 4.06 0 0 0-4.06 4.06v6.16c0 .41.32.77.74.77.42.01.76-.33.76-.75v-1.81c0-.52.42-.94.94-.94h3.06c.42 0 .76-.34.75-.76a.8.8 0 0 0-.78-.73"/><path fill="url(#G)" d="M21.23 17h-2.19a.76.76 0 0 1-.77-.74.74.74 0 0 1 .75-.76h4.21c.41 0 .77-.32.77-.74a.74.74 0 0 0-.75-.76h-3.21a.76.76 0 0 1-.77-.74.74.74 0 0 1 .75-.76h4.21c.41 0 .77-.32.77-.74a.74.74 0 0 0-.75-.76h-4.43a4.06 4.06 0 0 0-4.06 4.06v6.16c0 .41.32.77.74.77.42.01.76-.33.76-.75v-1.81c0-.52.42-.94.94-.94h3.06c.42 0 .76-.34.75-.76a.8.8 0 0 0-.78-.73"/><path fill="url(#H)" d="M21.23 17h-2.19a.76.76 0 0 1-.77-.74.74.74 0 0 1 .75-.76h4.21c.41 0 .77-.32.77-.74a.74.74 0 0 0-.75-.76h-3.21a.76.76 0 0 1-.77-.74.74.74 0 0 1 .75-.76h4.21c.41 0 .77-.32.77-.74a.74.74 0 0 0-.75-.76h-4.43a4.06 4.06 0 0 0-4.06 4.06v6.16c0 .41.32.77.74.77.42.01.76-.33.76-.75v-1.81c0-.52.42-.94.94-.94h3.06c.42 0 .76-.34.75-.76a.8.8 0 0 0-.78-.73"/><path fill="url(#I)" d="M21.23 17h-2.19a.76.76 0 0 1-.77-.74.74.74 0 0 1 .75-.76h4.21c.41 0 .77-.32.77-.74a.74.74 0 0 0-.75-.76h-3.21a.76.76 0 0 1-.77-.74.74.74 0 0 1 .75-.76h4.21c.41 0 .77-.32.77-.74a.74.74 0 0 0-.75-.76h-4.43a4.06 4.06 0 0 0-4.06 4.06v6.16c0 .41.32.77.74.77.42.01.76-.33.76-.75v-1.81c0-.52.42-.94.94-.94h3.06c.42 0 .76-.34.75-.76a.8.8 0 0 0-.78-.73"/><path fill="url(#J)" d="M21.23 17h-2.19a.76.76 0 0 1-.77-.74.74.74 0 0 1 .75-.76h4.21c.41 0 .77-.32.77-.74a.74.74 0 0 0-.75-.76h-3.21a.76.76 0 0 1-.77-.74.74.74 0 0 1 .75-.76h4.21c.41 0 .77-.32.77-.74a.74.74 0 0 0-.75-.76h-4.43a4.06 4.06 0 0 0-4.06 4.06v6.16c0 .41.32.77.74.77.42.01.76-.33.76-.75v-1.81c0-.52.42-.94.94-.94h3.06c.42 0 .76-.34.75-.76a.8.8 0 0 0-.78-.73"/><g filter="url(#K)"><path fill="#ffde50" d="M18.23 8h-2.38a.76.76 0 0 1-.77-.74.74.74 0 0 1 .75-.76h4.4c.41 0 .77-.32.77-.74a.74.74 0 0 0-.75-.76h-3.4a.76.76 0 0 1-.77-.74.74.74 0 0 1 .75-.76h4.4c.41 0 .77-.32.77-.74a.74.74 0 0 0-.75-.76h-4.44a4.06 4.06 0 0 0-4.06 4.06v6.16c0 .41.32.77.74.77.42.01.76-.33.76-.75v-1.8c0-.52.42-.94.94-.94h3.06c.42 0 .76-.34.75-.76a.76.76 0 0 0-.77-.74"/><path fill="url(#L)" d="M18.23 8h-2.38a.76.76 0 0 1-.77-.74.74.74 0 0 1 .75-.76h4.4c.41 0 .77-.32.77-.74a.74.74 0 0 0-.75-.76h-3.4a.76.76 0 0 1-.77-.74.74.74 0 0 1 .75-.76h4.4c.41 0 .77-.32.77-.74a.74.74 0 0 0-.75-.76h-4.44a4.06 4.06 0 0 0-4.06 4.06v6.16c0 .41.32.77.74.77.42.01.76-.33.76-.75v-1.8c0-.52.42-.94.94-.94h3.06c.42 0 .76-.34.75-.76a.76.76 0 0 0-.77-.74"/><path fill="url(#M)" d="M18.23 8h-2.38a.76.76 0 0 1-.77-.74.74.74 0 0 1 .75-.76h4.4c.41 0 .77-.32.77-.74a.74.74 0 0 0-.75-.76h-3.4a.76.76 0 0 1-.77-.74.74.74 0 0 1 .75-.76h4.4c.41 0 .77-.32.77-.74a.74.74 0 0 0-.75-.76h-4.44a4.06 4.06 0 0 0-4.06 4.06v6.16c0 .41.32.77.74.77.42.01.76-.33.76-.75v-1.8c0-.52.42-.94.94-.94h3.06c.42 0 .76-.34.75-.76a.76.76 0 0 0-.77-.74"/><path fill="url(#N)" d="M18.23 8h-2.38a.76.76 0 0 1-.77-.74.74.74 0 0 1 .75-.76h4.4c.41 0 .77-.32.77-.74a.74.74 0 0 0-.75-.76h-3.4a.76.76 0 0 1-.77-.74.74.74 0 0 1 .75-.76h4.4c.41 0 .77-.32.77-.74a.74.74 0 0 0-.75-.76h-4.44a4.06 4.06 0 0 0-4.06 4.06v6.16c0 .41.32.77.74.77.42.01.76-.33.76-.75v-1.8c0-.52.42-.94.94-.94h3.06c.42 0 .76-.34.75-.76a.76.76 0 0 0-.77-.74"/></g><path fill="url(#O)" d="M18.23 8h-2.38a.76.76 0 0 1-.77-.74.74.74 0 0 1 .75-.76h4.4c.41 0 .77-.32.77-.74a.74.74 0 0 0-.75-.76h-3.4a.76.76 0 0 1-.77-.74.74.74 0 0 1 .75-.76h4.4c.41 0 .77-.32.77-.74a.74.74 0 0 0-.75-.76h-4.44a4.06 4.06 0 0 0-4.06 4.06v6.16c0 .41.32.77.74.77.42.01.76-.33.76-.75v-1.8c0-.52.42-.94.94-.94h3.06c.42 0 .76-.34.75-.76a.76.76 0 0 0-.77-.74"/><path fill="url(#P)" d="M18.23 8h-2.38a.76.76 0 0 1-.77-.74.74.74 0 0 1 .75-.76h4.4c.41 0 .77-.32.77-.74a.74.74 0 0 0-.75-.76h-3.4a.76.76 0 0 1-.77-.74.74.74 0 0 1 .75-.76h4.4c.41 0 .77-.32.77-.74a.74.74 0 0 0-.75-.76h-4.44a4.06 4.06 0 0 0-4.06 4.06v6.16c0 .41.32.77.74.77.42.01.76-.33.76-.75v-1.8c0-.52.42-.94.94-.94h3.06c.42 0 .76-.34.75-.76a.76.76 0 0 0-.77-.74"/><path fill="url(#Q)" d="M18.23 8h-2.38a.76.76 0 0 1-.77-.74.74.74 0 0 1 .75-.76h4.4c.41 0 .77-.32.77-.74a.74.74 0 0 0-.75-.76h-3.4a.76.76 0 0 1-.77-.74.74.74 0 0 1 .75-.76h4.4c.41 0 .77-.32.77-.74a.74.74 0 0 0-.75-.76h-4.44a4.06 4.06 0 0 0-4.06 4.06v6.16c0 .41.32.77.74.77.42.01.76-.33.76-.75v-1.8c0-.52.42-.94.94-.94h3.06c.42 0 .76-.34.75-.76a.76.76 0 0 0-.77-.74"/><path fill="url(#R)" d="M18.23 8h-2.38a.76.76 0 0 1-.77-.74.74.74 0 0 1 .75-.76h4.4c.41 0 .77-.32.77-.74a.74.74 0 0 0-.75-.76h-3.4a.76.76 0 0 1-.77-.74.74.74 0 0 1 .75-.76h4.4c.41 0 .77-.32.77-.74a.74.74 0 0 0-.75-.76h-4.44a4.06 4.06 0 0 0-4.06 4.06v6.16c0 .41.32.77.74.77.42.01.76-.33.76-.75v-1.8c0-.52.42-.94.94-.94h3.06c.42 0 .76-.34.75-.76a.76.76 0 0 0-.77-.74"/><path fill="url(#S)" d="M18.23 8h-2.38a.76.76 0 0 1-.77-.74.74.74 0 0 1 .75-.76h4.4c.41 0 .77-.32.77-.74a.74.74 0 0 0-.75-.76h-3.4a.76.76 0 0 1-.77-.74.74.74 0 0 1 .75-.76h4.4c.41 0 .77-.32.77-.74a.74.74 0 0 0-.75-.76h-4.44a4.06 4.06 0 0 0-4.06 4.06v6.16c0 .41.32.77.74.77.42.01.76-.33.76-.75v-1.8c0-.52.42-.94.94-.94h3.06c.42 0 .76-.34.75-.76a.76.76 0 0 0-.77-.74"/><path fill="url(#T)" d="M18.23 8h-2.38a.76.76 0 0 1-.77-.74.74.74 0 0 1 .75-.76h4.4c.41 0 .77-.32.77-.74a.74.74 0 0 0-.75-.76h-3.4a.76.76 0 0 1-.77-.74.74.74 0 0 1 .75-.76h4.4c.41 0 .77-.32.77-.74a.74.74 0 0 0-.75-.76h-4.44a4.06 4.06 0 0 0-4.06 4.06v6.16c0 .41.32.77.74.77.42.01.76-.33.76-.75v-1.8c0-.52.42-.94.94-.94h3.06c.42 0 .76-.34.75-.76a.76.76 0 0 0-.77-.74"/><g filter="url(#U)"><path stroke="url(#V)" stroke-linecap="round" stroke-width=".15" d="M8.16 14.52c.8.25 2.42 1.22 2.42 3.5"/></g><g filter="url(#W)"><path stroke="url(#X)" stroke-linecap="round" stroke-width=".25" d="M22.62 21.31v4.94"/></g><g filter="url(#Y)"><path stroke="#ffd25b" stroke-linecap="round" stroke-width=".4" d="M13.75 12.25V10.2"/></g><g filter="url(#Z)"><path stroke="#ffd25b" stroke-linecap="round" stroke-width=".4" d="M16.75 21.31v-2.04"/></g><defs><radialGradient id="c" cx="0" cy="0" r="1" gradientTransform="matrix(-2.18966 0 0 -.52548 19.08 30)" gradientUnits="userSpaceOnUse"><stop stop-color="#527791"/><stop offset="1" stop-color="#4b687c" stop-opacity="0"/></radialGradient><radialGradient id="d" cx="0" cy="0" r="1" gradientTransform="matrix(2.2462 0 0 .19095 16.7 29.39)" gradientUnits="userSpaceOnUse"><stop stop-color="#77a947"/><stop offset="1" stop-color="#77a947" stop-opacity="0"/></radialGradient><radialGradient id="g" cx="0" cy="0" r="1" gradientTransform="matrix(-1.85937 0 0 -.52548 13.03 25.98)" gradientUnits="userSpaceOnUse"><stop stop-color="#527791"/><stop offset="1" stop-color="#4b687c" stop-opacity="0"/></radialGradient><radialGradient id="h" cx="0" cy="0" r="1" gradientTransform="matrix(1.21875 0 0 .17078 11.02 25.37)" gradientUnits="userSpaceOnUse"><stop stop-color="#77a947"/><stop offset="1" stop-color="#77a947" stop-opacity="0"/></radialGradient><radialGradient id="s" cx="0" cy="0" r="1" gradientTransform="rotate(64.34 -9.5 26.12)scale(7.07245 5.87418)" gradientUnits="userSpaceOnUse"><stop offset=".84" stop-color="#4a6c9a" stop-opacity="0"/><stop offset="1" stop-color="#4a6c9a"/></radialGradient><radialGradient id="u" cx="0" cy="0" r="1" gradientTransform="rotate(112.75 5.27 17.8)scale(4.20193 4.13772)" gradientUnits="userSpaceOnUse"><stop stop-color="#66a55d"/><stop offset="1" stop-color="#66a55d" stop-opacity="0"/></radialGradient><radialGradient id="x" cx="0" cy="0" r="1" gradientTransform="rotate(112.5 1.35 10.73)scale(7.2724 7.3364)" gradientUnits="userSpaceOnUse"><stop stop-color="#8ec15d"/><stop offset="1" stop-color="#8ec15d" stop-opacity="0"/></radialGradient><radialGradient id="y" cx="0" cy="0" r="1" gradientTransform="rotate(118.86 1.84 12.96)scale(9.67337 9.36716)" gradientUnits="userSpaceOnUse"><stop offset=".87" stop-color="#577591" stop-opacity="0"/><stop offset="1" stop-color="#577591"/></radialGradient><radialGradient id="B" cx="0" cy="0" r="1" gradientTransform="matrix(2.48055 0 0 2.77254 15.4 17.16)" gradientUnits="userSpaceOnUse"><stop stop-color="#f0a43d"/><stop offset="1" stop-color="#f0a43d" stop-opacity="0"/></radialGradient><radialGradient id="D" cx="0" cy="0" r="1" gradientTransform="rotate(-22 60.7 -18.74)scale(10.1785 8.55774)" gradientUnits="userSpaceOnUse"><stop stop-color="#f6a340"/><stop offset="1" stop-color="#f6a340" stop-opacity="0"/></radialGradient><radialGradient id="E" cx="0" cy="0" r="1" gradientTransform="matrix(-.98352 .5 -.42513 -.83624 25 11.47)" gradientUnits="userSpaceOnUse"><stop stop-color="#ffff65"/><stop offset="1" stop-color="#ffff65" stop-opacity="0"/></radialGradient><radialGradient id="F" cx="0" cy="0" r="1" gradientTransform="rotate(157.76 10.66 9.46)scale(1.19724 1.01809)" gradientUnits="userSpaceOnUse"><stop stop-color="#ffff65"/><stop offset="1" stop-color="#ffff65" stop-opacity="0"/></radialGradient><radialGradient id="G" cx="0" cy="0" r="1" gradientTransform="rotate(154.24 9.15 11.13)scale(.97054 .82523)" gradientUnits="userSpaceOnUse"><stop stop-color="#ffff65"/><stop offset="1" stop-color="#ffff65" stop-opacity="0"/></radialGradient><radialGradient id="H" cx="0" cy="0" r="1" gradientTransform="rotate(159.83 7.86 9.86)scale(.90623 .88767)" gradientUnits="userSpaceOnUse"><stop offset=".23" stop-color="#ffff65"/><stop offset="1" stop-color="#ffff65" stop-opacity="0"/></radialGradient><radialGradient id="I" cx="0" cy="0" r="1" gradientTransform="rotate(170.39 9.13 7.53)scale(1.02898 1.00811)" gradientUnits="userSpaceOnUse"><stop stop-color="#ffff65"/><stop offset="1" stop-color="#ffff65" stop-opacity="0"/></radialGradient><radialGradient id="M" cx="0" cy="0" r="1" gradientTransform="matrix(2.48323 0 0 2.77254 12.4 8.16)" gradientUnits="userSpaceOnUse"><stop stop-color="#f0a43d"/><stop offset="1" stop-color="#f0a43d" stop-opacity="0"/></radialGradient><radialGradient id="O" cx="0" cy="0" r="1" gradientTransform="matrix(-.98458 .5 -.42486 -.83661 22 2.47)" gradientUnits="userSpaceOnUse"><stop stop-color="#ffff65"/><stop offset="1" stop-color="#ffff65" stop-opacity="0"/></radialGradient><radialGradient id="P" cx="0" cy="0" r="1" gradientTransform="rotate(157.78 10.05 4.67)scale(1.19835 1.01824)" gradientUnits="userSpaceOnUse"><stop stop-color="#ffff65"/><stop offset="1" stop-color="#ffff65" stop-opacity="0"/></radialGradient><radialGradient id="Q" cx="0" cy="0" r="1" gradientTransform="rotate(154.26 8.68 6.28)scale(.9714 .8254)" gradientUnits="userSpaceOnUse"><stop stop-color="#ffff65"/><stop offset="1" stop-color="#ffff65" stop-opacity="0"/></radialGradient><radialGradient id="R" cx="0" cy="0" r="1" gradientTransform="rotate(159.85 7.16 5.1)scale(.9071 .88778)" gradientUnits="userSpaceOnUse"><stop offset=".23" stop-color="#ffff65"/><stop offset="1" stop-color="#ffff65" stop-opacity="0"/></radialGradient><radialGradient id="S" cx="0" cy="0" r="1" gradientTransform="rotate(170.4 8 2.9)scale(1.03007 1.00814)" gradientUnits="userSpaceOnUse"><stop stop-color="#ffff65"/><stop offset="1" stop-color="#ffff65" stop-opacity="0"/></radialGradient><radialGradient id="V" cx="0" cy="0" r="1" gradientTransform="rotate(135.58 1.89 9.77)scale(1.20456 1.96882)" gradientUnits="userSpaceOnUse"><stop stop-color="#99cc6b"/><stop offset="1" stop-color="#99cc6b" stop-opacity="0"/></radialGradient><linearGradient id="a" x1="17.13" x2="19.37" y1="29.28" y2="29.28" gradientUnits="userSpaceOnUse"><stop stop-color="#6da336"/><stop offset="1" stop-color="#2c6e4a"/></linearGradient><linearGradient id="b" x1="17.74" x2="17.74" y1="30" y2="29.49" gradientUnits="userSpaceOnUse"><stop stop-color="#7f9771"/><stop offset="1" stop-color="#7f9771" stop-opacity="0"/></linearGradient><linearGradient id="e" x1="11.38" x2="13.36" y1="25.26" y2="25.26" gradientUnits="userSpaceOnUse"><stop stop-color="#6da336"/><stop offset="1" stop-color="#2c6e4a"/></linearGradient><linearGradient id="f" x1="11.89" x2="11.89" y1="25.98" y2="25.47" gradientUnits="userSpaceOnUse"><stop stop-color="#7f9771"/><stop offset="1" stop-color="#7f9771" stop-opacity="0"/></linearGradient><linearGradient id="i" x1="17.35" x2="17.35" y1="20.13" y2="30" gradientUnits="userSpaceOnUse"><stop stop-color="#86b14b"/><stop offset="1" stop-color="#337974"/></linearGradient><linearGradient id="j" x1="15.79" x2="16.34" y1="20.46" y2="20.5" gradientUnits="userSpaceOnUse"><stop stop-color="#6aa136"/><stop offset="1" stop-color="#6aa136" stop-opacity="0"/></linearGradient><linearGradient id="k" x1="14.35" x2="14.35" y1="16.61" y2="30" gradientUnits="userSpaceOnUse"><stop stop-color="#86b14b"/><stop offset="1" stop-color="#337974"/></linearGradient><linearGradient id="l" x1="12.79" x2="13.34" y1="17.05" y2="17.09" gradientUnits="userSpaceOnUse"><stop stop-color="#6aa136"/><stop offset="1" stop-color="#6aa136" stop-opacity="0"/></linearGradient><linearGradient id="n" x1="14.11" x2="14.11" y1="12.58" y2="29.57" gradientUnits="userSpaceOnUse"><stop stop-color="#94be59"/><stop offset="1" stop-color="#5b9691"/></linearGradient><linearGradient id="p" x1="17.08" x2="17.08" y1="21.14" y2="30.52" gradientUnits="userSpaceOnUse"><stop stop-color="#94be59"/><stop offset="1" stop-color="#5b9691"/></linearGradient><linearGradient id="r" x1="21.03" x2="21.03" y1="20.89" y2="29.73" gradientUnits="userSpaceOnUse"><stop stop-color="#6ea373"/><stop offset="1" stop-color="#417f8b"/></linearGradient><linearGradient id="t" x1="18.44" x2="19.5" y1="27.72" y2="27.72" gradientUnits="userSpaceOnUse"><stop stop-color="#2e7361"/><stop offset="1" stop-color="#2e7361" stop-opacity="0"/></linearGradient><linearGradient id="w" x1="9" x2="9" y1="14.02" y2="24.69" gradientUnits="userSpaceOnUse"><stop stop-color="#7eb342"/><stop offset="1" stop-color="#5f8e80"/></linearGradient><linearGradient id="A" x1="17.95" x2="17.95" y1="21.99" y2="13.5" gradientUnits="userSpaceOnUse"><stop stop-color="#ffbd2f"/><stop offset="1" stop-color="#ffbd2f" stop-opacity="0"/></linearGradient><linearGradient id="C" x1="12.93" x2="16.99" y1="17.16" y2="17.16" gradientUnits="userSpaceOnUse"><stop offset=".57" stop-color="#f0a43d"/><stop offset="1" stop-color="#f0a43d" stop-opacity="0"/></linearGradient><linearGradient id="J" x1="22.97" x2="22.97" y1="10.84" y2="11.63" gradientUnits="userSpaceOnUse"><stop stop-color="#ffe338"/><stop offset="1" stop-color="#ffe338" stop-opacity="0"/></linearGradient><linearGradient id="L" x1="14.94" x2="14.94" y1="12.99" y2="4.5" gradientUnits="userSpaceOnUse"><stop stop-color="#ffbd2f"/><stop offset="1" stop-color="#ffbd2f" stop-opacity="0"/></linearGradient><linearGradient id="N" x1="9.91" x2="13.98" y1="8.16" y2="8.16" gradientUnits="userSpaceOnUse"><stop offset=".57" stop-color="#f0a43d"/><stop offset="1" stop-color="#f0a43d" stop-opacity="0"/></linearGradient><linearGradient id="T" x1="19.97" x2="19.97" y1="1.84" y2="2.63" gradientUnits="userSpaceOnUse"><stop stop-color="#ffe338"/><stop offset="1" stop-color="#ffe338" stop-opacity="0"/></linearGradient><linearGradient id="X" x1="23.12" x2="23.12" y1="21.31" y2="26.25" gradientUnits="userSpaceOnUse"><stop stop-color="#8abe82"/><stop offset="1" stop-color="#8abe82" stop-opacity="0"/></linearGradient><filter id="m" width=".75" height="17.75" x="13.24" y="12.2" color-interpolation-filters="sRGB" filterUnits="userSpaceOnUse"><feFlood flood-opacity="0" result="BackgroundImageFix"/><feBlend in="SourceGraphic" in2="BackgroundImageFix" result="shape"/><feGaussianBlur result="effect1_foregroundBlur_28327_7790" stdDeviation=".13"/></filter><filter id="o" width=".75" height="8.5" x="16.2" y="21.51" color-interpolation-filters="sRGB" filterUnits="userSpaceOnUse"><feFlood flood-opacity="0" result="BackgroundImageFix"/><feBlend in="SourceGraphic" in2="BackgroundImageFix" result="shape"/><feGaussianBlur result="effect1_foregroundBlur_28327_7790" stdDeviation=".13"/></filter><filter id="q" width="3.99" height="9.11" x="19.04" y="20.89" color-interpolation-filters="sRGB" filterUnits="userSpaceOnUse"><feFlood flood-opacity="0" result="BackgroundImageFix"/><feBlend in="SourceGraphic" in2="BackgroundImageFix" result="shape"/><feColorMatrix in="SourceAlpha" result="hardAlpha" values="0 0 0 0 0 0 0 0 0 0 0 0 0 0 0 0 0 0 127 0"/><feOffset/><feGaussianBlur stdDeviation=".25"/><feComposite in2="hardAlpha" k2="-1" k3="1" operator="arithmetic"/><feColorMatrix values="0 0 0 0 0.27451 0 0 0 0 0.517647 0 0 0 0 0.321569 0 0 0 1 0"/><feBlend in2="shape" result="effect1_innerShadow_28327_7790"/></filter><filter id="v" width="4" height="11.96" x="7" y="14.02" color-interpolation-filters="sRGB" filterUnits="userSpaceOnUse"><feFlood flood-opacity="0" result="BackgroundImageFix"/><feBlend in="SourceGraphic" in2="BackgroundImageFix" result="shape"/><feColorMatrix in="SourceAlpha" result="hardAlpha" values="0 0 0 0 0 0 0 0 0 0 0 0 0 0 0 0 0 0 127 0"/><feOffset/><feGaussianBlur stdDeviation=".25"/><feComposite in2="hardAlpha" k2="-1" k3="1" operator="arithmetic"/><feColorMatrix values="0 0 0 0 0.313726 0 0 0 0 0.517647 0 0 0 0 0.313726 0 0 0 1 0"/><feBlend in2="shape" result="effect1_innerShadow_28327_7790"/></filter><filter id="z" width="9.49" height="11.24" x="15.76" y="10.75" color-interpolation-filters="sRGB" filterUnits="userSpaceOnUse"><feFlood flood-opacity="0" result="BackgroundImageFix"/><feBlend in="SourceGraphic" in2="BackgroundImageFix" result="shape"/><feColorMatrix in="SourceAlpha" result="hardAlpha" values="0 0 0 0 0 0 0 0 0 0 0 0 0 0 0 0 0 0 127 0"/><feOffset dy="-.25"/><feGaussianBlur stdDeviation=".25"/><feComposite in2="hardAlpha" k2="-1" k3="1" operator="arithmetic"/><feColorMatrix values="0 0 0 0 0.964706 0 0 0 0 0.615686 0 0 0 0 0.411765 0 0 0 1 0"/><feBlend in2="shape" result="effect1_innerShadow_28327_7790"/><feColorMatrix in="SourceAlpha" result="hardAlpha" values="0 0 0 0 0 0 0 0 0 0 0 0 0 0 0 0 0 0 127 0"/><feOffset dx=".25"/><feGaussianBlur stdDeviation=".25"/><feComposite in2="hardAlpha" k2="-1" k3="1" operator="arithmetic"/><feColorMatrix values="0 0 0 0 0.752941 0 0 0 0 0.690196 0 0 0 0 0.356863 0 0 0 1 0"/><feBlend in2="effect1_innerShadow_28327_7790" result="effect2_innerShadow_28327_7790"/></filter><filter id="K" width="9.5" height="11.24" x="12.75" y="1.75" color-interpolation-filters="sRGB" filterUnits="userSpaceOnUse"><feFlood flood-opacity="0" result="BackgroundImageFix"/><feBlend in="SourceGraphic" in2="BackgroundImageFix" result="shape"/><feColorMatrix in="SourceAlpha" result="hardAlpha" values="0 0 0 0 0 0 0 0 0 0 0 0 0 0 0 0 0 0 127 0"/><feOffset dy="-.25"/><feGaussianBlur stdDeviation=".25"/><feComposite in2="hardAlpha" k2="-1" k3="1" operator="arithmetic"/><feColorMatrix values="0 0 0 0 0.964706 0 0 0 0 0.615686 0 0 0 0 0.411765 0 0 0 1 0"/><feBlend in2="shape" result="effect1_innerShadow_28327_7790"/><feColorMatrix in="SourceAlpha" result="hardAlpha" values="0 0 0 0 0 0 0 0 0 0 0 0 0 0 0 0 0 0 127 0"/><feOffset dx=".25"/><feGaussianBlur stdDeviation=".25"/><feComposite in2="hardAlpha" k2="-1" k3="1" operator="arithmetic"/><feColorMatrix values="0 0 0 0 0.752941 0 0 0 0 0.690196 0 0 0 0 0.356863 0 0 0 1 0"/><feBlend in2="effect1_innerShadow_28327_7790" result="effect2_innerShadow_28327_7790"/></filter><filter id="U" width="3.07" height="4.15" x="7.83" y="14.19" color-interpolation-filters="sRGB" filterUnits="userSpaceOnUse"><feFlood flood-opacity="0" result="BackgroundImageFix"/><feBlend in="SourceGraphic" in2="BackgroundImageFix" result="shape"/><feGaussianBlur result="effect1_foregroundBlur_28327_7790" stdDeviation=".13"/></filter><filter id="W" width="1.05" height="5.99" x="22.1" y="20.79" color-interpolation-filters="sRGB" filterUnits="userSpaceOnUse"><feFlood flood-opacity="0" result="BackgroundImageFix"/><feBlend in="SourceGraphic" in2="BackgroundImageFix" result="shape"/><feGaussianBlur result="effect1_foregroundBlur_28327_7790" stdDeviation=".2"/></filter><filter id="Y" width="1.2" height="3.25" x="13.15" y="9.6" color-interpolation-filters="sRGB" filterUnits="userSpaceOnUse"><feFlood flood-opacity="0" result="BackgroundImageFix"/><feBlend in="SourceGraphic" in2="BackgroundImageFix" result="shape"/><feGaussianBlur result="effect1_foregroundBlur_28327_7790" stdDeviation=".2"/></filter><filter id="Z" width="1.2" height="3.25" x="16.15" y="18.67" color-interpolation-filters="sRGB" filterUnits="userSpaceOnUse"><feFlood flood-opacity="0" result="BackgroundImageFix"/><feBlend in="SourceGraphic" in2="BackgroundImageFix" result="shape"/><feGaussianBlur result="effect1_foregroundBlur_28327_7790" stdDeviation=".2"/></filter></defs></svg>