<svg xmlns="http://www.w3.org/2000/svg" width="32" height="32" fill="none" viewBox="0 0 32 32"><g filter="url(#a)"><path fill="#de2236" d="M16.06 8.04h8.8A2.16 2.16 0 0 0 27 5.9c0-3.39-4.05-5.1-6.47-2.76l-4.47 4.33z"/><path fill="url(#b)" d="M16.06 8.04h8.8A2.16 2.16 0 0 0 27 5.9c0-3.39-4.05-5.1-6.47-2.76l-4.47 4.33z"/></g><g filter="url(#c)"><path fill="url(#d)" d="M16.06 8.04h-8.8A2.16 2.16 0 0 1 5.12 5.9c0-3.39 4.04-5.1 6.47-2.76l4.47 4.33z"/><path fill="url(#e)" d="M16.06 8.04h-8.8A2.16 2.16 0 0 1 5.12 5.9c0-3.39 4.04-5.1 6.47-2.76l4.47 4.33z"/><path fill="url(#f)" d="M16.06 8.04h-8.8A2.16 2.16 0 0 1 5.12 5.9c0-3.39 4.04-5.1 6.47-2.76l4.47 4.33z"/></g><path fill="url(#g)" d="M24.89 30.04H7.1A2.1 2.1 0 0 1 5 27.96V15.04h22v12.92a2.1 2.1 0 0 1-2.11 2.08"/><path fill="url(#h)" d="M24.89 30.04H7.1A2.1 2.1 0 0 1 5 27.96V15.04h22v12.92a2.1 2.1 0 0 1-2.11 2.08"/><path fill="url(#i)" d="M24.89 30.04H7.1A2.1 2.1 0 0 1 5 27.96V15.04h22v12.92a2.1 2.1 0 0 1-2.11 2.08"/><path fill="url(#j)" d="M24.89 30.04H7.1A2.1 2.1 0 0 1 5 27.96V15.04h22v12.92a2.1 2.1 0 0 1-2.11 2.08"/><path fill="url(#k)" d="M24.89 30.04H7.1A2.1 2.1 0 0 1 5 27.96V15.04h22v12.92a2.1 2.1 0 0 1-2.11 2.08"/><path fill="url(#l)" d="M24.89 30.04H7.1A2.1 2.1 0 0 1 5 27.96V15.04h22v12.92a2.1 2.1 0 0 1-2.11 2.08"/><path fill="url(#m)" d="M27.66 8.04H4.34C3.6 8.04 3 8.64 3 9.38v4.32c0 .74.6 1.34 1.34 1.34h23.32c.74 0 1.34-.6 1.34-1.34V9.38c0-.74-.6-1.34-1.34-1.34"/><path fill="url(#n)" d="M27.66 8.04H4.34C3.6 8.04 3 8.64 3 9.38v4.32c0 .74.6 1.34 1.34 1.34h23.32c.74 0 1.34-.6 1.34-1.34V9.38c0-.74-.6-1.34-1.34-1.34"/><path fill="url(#o)" d="M27.66 8.04H4.34C3.6 8.04 3 8.64 3 9.38v4.32c0 .74.6 1.34 1.34 1.34h23.32c.74 0 1.34-.6 1.34-1.34V9.38c0-.74-.6-1.34-1.34-1.34"/><path fill="url(#p)" d="M27.66 8.04H4.34C3.6 8.04 3 8.64 3 9.38v4.32c0 .74.6 1.34 1.34 1.34h23.32c.74 0 1.34-.6 1.34-1.34V9.38c0-.74-.6-1.34-1.34-1.34"/><path fill="url(#q)" d="M27.66 8.04H4.34C3.6 8.04 3 8.64 3 9.38v4.32c0 .74.6 1.34 1.34 1.34h23.32c.74 0 1.34-.6 1.34-1.34V9.38c0-.74-.6-1.34-1.34-1.34"/><path fill="url(#r)" d="M27.66 8.04H4.34C3.6 8.04 3 8.64 3 9.38v4.32c0 .74.6 1.34 1.34 1.34h23.32c.74 0 1.34-.6 1.34-1.34V9.38c0-.74-.6-1.34-1.34-1.34"/><g filter="url(#s)"><path fill="url(#t)" d="M16 3.04c-1.66 0-3 1.37-3 3.06v23.94h6V6.1a3 3 0 0 0-3-3.06"/><path fill="url(#u)" d="M16 3.04c-1.66 0-3 1.37-3 3.06v23.94h6V6.1a3 3 0 0 0-3-3.06"/></g><g filter="url(#v)"><path stroke="#fb5157" stroke-linecap="round" stroke-width=".5" d="M24.01 3.04a2.9 2.9 0 0 1 2.13 3.1"/></g><g filter="url(#w)"><path stroke="#fb5157" stroke-linecap="round" stroke-width=".5" d="M9.67 2.87c.15-.01.61.1 1.2.62.59.53 1.43 1.4 1.78 1.78"/></g><defs><linearGradient id="b" x1="22.71" x2="22.71" y1="8.52" y2="6.66" gradientUnits="userSpaceOnUse"><stop stop-color="#ce280a"/><stop offset="1" stop-color="#ce280a" stop-opacity="0"/></linearGradient><linearGradient id="d" x1="12.34" x2="10.59" y1="3.34" y2="8.04" gradientUnits="userSpaceOnUse"><stop stop-color="#df2332"/><stop offset="1" stop-color="#d9213b"/></linearGradient><linearGradient id="e" x1="9.41" x2="9.41" y1="8.52" y2="6.66" gradientUnits="userSpaceOnUse"><stop stop-color="#ce280a"/><stop offset="1" stop-color="#ce280a" stop-opacity="0"/></linearGradient><linearGradient id="g" x1="5" x2="27" y1="24.6" y2="24.6" gradientUnits="userSpaceOnUse"><stop stop-color="#f1a738"/><stop offset="1" stop-color="#fad42c"/></linearGradient><linearGradient id="h" x1="16" x2="16" y1="13.04" y2="16.29" gradientUnits="userSpaceOnUse"><stop stop-color="#c97525"/><stop offset="1" stop-color="#c97525" stop-opacity="0"/></linearGradient><linearGradient id="j" x1="4.45" x2="7.7" y1="22.54" y2="22.54" gradientUnits="userSpaceOnUse"><stop stop-color="#c2773f"/><stop offset="1" stop-color="#c2773f" stop-opacity="0"/></linearGradient><linearGradient id="k" x1="16.51" x2="16.51" y1="30.66" y2="28.96" gradientUnits="userSpaceOnUse"><stop stop-color="#e68370"/><stop offset="1" stop-color="#e68370" stop-opacity="0"/></linearGradient><linearGradient id="l" x1="27.7" x2="25.01" y1="23.85" y2="23.85" gradientUnits="userSpaceOnUse"><stop stop-color="#fff733"/><stop offset="1" stop-color="#fff733" stop-opacity="0"/></linearGradient><linearGradient id="m" x1="29" x2="3" y1="12.03" y2="11.96" gradientUnits="userSpaceOnUse"><stop stop-color="#f6d729"/><stop offset="1" stop-color="#f39b3a"/></linearGradient><linearGradient id="n" x1="29" x2="27.27" y1="11.54" y2="11.54" gradientUnits="userSpaceOnUse"><stop stop-color="#fff850"/><stop offset="1" stop-color="#fff850" stop-opacity="0"/></linearGradient><linearGradient id="o" x1="16" x2="16" y1="15.36" y2="14.19" gradientUnits="userSpaceOnUse"><stop stop-color="#e8af21"/><stop offset="1" stop-color="#e8af21" stop-opacity="0"/></linearGradient><linearGradient id="q" x1="2.72" x2="5.03" y1="11.96" y2="11.96" gradientUnits="userSpaceOnUse"><stop stop-color="#be7841"/><stop offset="1" stop-color="#be7841" stop-opacity="0"/></linearGradient><linearGradient id="t" x1="16.01" x2="16.01" y1="3.04" y2="30.04" gradientUnits="userSpaceOnUse"><stop stop-color="#d12136"/><stop offset="1" stop-color="#b6246e"/></linearGradient><linearGradient id="u" x1="16" x2="16" y1="30.3" y2="28.85" gradientUnits="userSpaceOnUse"><stop stop-color="#b3368c"/><stop offset="1" stop-color="#b3368c" stop-opacity="0"/></linearGradient><filter id="a" width="11.24" height="6.3" x="16.06" y="2.05" color-interpolation-filters="sRGB" filterUnits="userSpaceOnUse"><feFlood flood-opacity="0" result="BackgroundImageFix"/><feBlend in="SourceGraphic" in2="BackgroundImageFix" result="shape"/><feColorMatrix in="SourceAlpha" result="hardAlpha" values="0 0 0 0 0 0 0 0 0 0 0 0 0 0 0 0 0 0 127 0"/><feOffset dx=".3" dy=".3"/><feGaussianBlur stdDeviation=".38"/><feComposite in2="hardAlpha" k2="-1" k3="1" operator="arithmetic"/><feColorMatrix values="0 0 0 0 0.698039 0 0 0 0 0.235294 0 0 0 0 0.243137 0 0 0 1 0"/><feBlend in2="shape" result="effect1_innerShadow_18_1284"/></filter><filter id="c" width="11.44" height="6.3" x="5.12" y="1.75" color-interpolation-filters="sRGB" filterUnits="userSpaceOnUse"><feFlood flood-opacity="0" result="BackgroundImageFix"/><feBlend in="SourceGraphic" in2="BackgroundImageFix" result="shape"/><feColorMatrix in="SourceAlpha" result="hardAlpha" values="0 0 0 0 0 0 0 0 0 0 0 0 0 0 0 0 0 0 127 0"/><feOffset dx=".5" dy="-.3"/><feGaussianBlur stdDeviation=".38"/><feComposite in2="hardAlpha" k2="-1" k3="1" operator="arithmetic"/><feColorMatrix values="0 0 0 0 0.698039 0 0 0 0 0.235294 0 0 0 0 0.243137 0 0 0 1 0"/><feBlend in2="shape" result="effect1_innerShadow_18_1284"/></filter><filter id="s" width="6.4" height="27" x="12.8" y="3.04" color-interpolation-filters="sRGB" filterUnits="userSpaceOnUse"><feFlood flood-opacity="0" result="BackgroundImageFix"/><feBlend in="SourceGraphic" in2="BackgroundImageFix" result="shape"/><feColorMatrix in="SourceAlpha" result="hardAlpha" values="0 0 0 0 0 0 0 0 0 0 0 0 0 0 0 0 0 0 127 0"/><feOffset dx=".2"/><feGaussianBlur stdDeviation=".1"/><feComposite in2="hardAlpha" k2="-1" k3="1" operator="arithmetic"/><feColorMatrix values="0 0 0 0 0.729412 0 0 0 0 0.101961 0 0 0 0 0.152941 0 0 0 1 0"/><feBlend in2="shape" result="effect1_innerShadow_18_1284"/><feColorMatrix in="SourceAlpha" result="hardAlpha" values="0 0 0 0 0 0 0 0 0 0 0 0 0 0 0 0 0 0 127 0"/><feOffset dx="-.2"/><feGaussianBlur stdDeviation=".1"/><feComposite in2="hardAlpha" k2="-1" k3="1" operator="arithmetic"/><feColorMatrix values="0 0 0 0 0.894118 0 0 0 0 0.301961 0 0 0 0 0.341176 0 0 0 1 0"/><feBlend in2="effect1_innerShadow_18_1284" result="effect2_innerShadow_18_1284"/></filter><filter id="v" width="4.64" height="5.59" x="22.76" y="1.79" color-interpolation-filters="sRGB" filterUnits="userSpaceOnUse"><feFlood flood-opacity="0" result="BackgroundImageFix"/><feBlend in="SourceGraphic" in2="BackgroundImageFix" result="shape"/><feGaussianBlur result="effect1_foregroundBlur_18_1284" stdDeviation=".5"/></filter><filter id="w" width="5.48" height="4.9" x="8.42" y="1.62" color-interpolation-filters="sRGB" filterUnits="userSpaceOnUse"><feFlood flood-opacity="0" result="BackgroundImageFix"/><feBlend in="SourceGraphic" in2="BackgroundImageFix" result="shape"/><feGaussianBlur result="effect1_foregroundBlur_18_1284" stdDeviation=".5"/></filter><radialGradient id="f" cx="0" cy="0" r="1" gradientTransform="rotate(186.4 7 3.79)scale(2.57018 6.76007)" gradientUnits="userSpaceOnUse"><stop offset=".15" stop-color="#bd1123"/><stop offset="1" stop-color="#bd1123" stop-opacity="0"/></radialGradient><radialGradient id="i" cx="0" cy="0" r="1" gradientTransform="matrix(-2.375 0 0 -18.6875 13.64 21.35)" gradientUnits="userSpaceOnUse"><stop stop-color="#c87c28"/><stop offset="1" stop-color="#c87c28" stop-opacity="0"/></radialGradient><radialGradient id="p" cx="0" cy="0" r="1" gradientTransform="matrix(0 -1.82412 13.1049 0 6.15 15.77)" gradientUnits="userSpaceOnUse"><stop stop-color="#de7550"/><stop offset="1" stop-color="#de7550" stop-opacity="0"/></radialGradient><radialGradient id="r" cx="0" cy="0" r="1" gradientTransform="matrix(-2.53125 0 0 -17.5312 13.95 12.57)" gradientUnits="userSpaceOnUse"><stop offset=".19" stop-color="#c57e10"/><stop offset="1" stop-color="#c57e10" stop-opacity="0"/></radialGradient></defs></svg>