<svg xmlns="http://www.w3.org/2000/svg" width="32" height="32" fill="none" viewBox="0 0 32 32"><g filter="url(#a)"><path fill="#41364e" d="M7.99 13.73h11.97v5.75H7.99z"/><path fill="url(#b)" d="M7.99 13.73h11.97v5.75H7.99z"/><path fill="url(#c)" d="M7.99 13.73h11.97v5.75H7.99z"/></g><path fill="url(#d)" d="M21.61 18.69h3.27v8.98h-3.27z"/><path fill="url(#e)" d="M21.61 18.69h3.27v8.98h-3.27z"/><g filter="url(#f)"><path fill="url(#g)" d="M5.19 18.9c0-1.21.98-2.2 2.2-2.2h12.94c1.22 0 2.2.99 2.2 2.2v8.56a2.2 2.2 0 0 1-2.2 2.2H7.4a2.2 2.2 0 0 1-2.2-2.2z"/></g><g filter="url(#h)"><path fill="url(#i)" d="M7.85 24.29c0-.33.26-.6.6-.6h10.83c.33 0 .6.27.6.6v2.78a.6.6 0 0 1-.6.6H8.45a.6.6 0 0 1-.6-.6z"/></g><g filter="url(#j)"><path fill="url(#k)" d="M12.12 25.68a1.16 1.16 0 1 1-2.33 0 1.16 1.16 0 0 1 2.33 0"/><path fill="url(#l)" d="M12.12 25.68a1.16 1.16 0 1 1-2.33 0 1.16 1.16 0 0 1 2.33 0"/></g><g filter="url(#m)"><path fill="url(#n)" d="M14.93 25.68c0-.39.31-.7.7-.7h1.6a.7.7 0 1 1 0 1.41h-1.6a.7.7 0 0 1-.7-.7"/></g><g filter="url(#o)"><path fill="url(#p)" d="M29.98 17.28a.6.6 0 0 0-.85-.55l-4.25 1.96v8.98l4.25 1.93a.6.6 0 0 0 .85-.55z"/><path fill="url(#q)" d="M29.98 17.28a.6.6 0 0 0-.85-.55l-4.25 1.96v8.98l4.25 1.93a.6.6 0 0 0 .85-.55z"/><path fill="url(#r)" d="M29.98 17.28a.6.6 0 0 0-.85-.55l-4.25 1.96v8.98l4.25 1.93a.6.6 0 0 0 .85-.55z"/></g><path fill="url(#s)" d="M2.39 19.69h2.8v3.05h-2.8z"/><g filter="url(#t)"><path fill="#231c2a" d="M14.14 10.68a4.98 4.98 0 1 1-9.95 0 4.98 4.98 0 0 1 9.95 0"/></g><g filter="url(#u)"><path fill="url(#v)" d="M13.44 10.65a4.27 4.27 0 1 1-8.55 0 4.27 4.27 0 0 1 8.55 0"/></g><g filter="url(#w)"><path fill="url(#x)" d="M13.69 10.52a4.4 4.4 0 1 1-8.8 0 4.4 4.4 0 0 1 8.8 0"/></g><g filter="url(#y)"><path fill="#231c2a" d="M24.96 10.68a4.98 4.98 0 1 1-9.95 0 4.98 4.98 0 0 1 9.95 0"/></g><g filter="url(#z)"><path fill="url(#A)" d="M24.26 10.65a4.27 4.27 0 1 1-8.55 0 4.27 4.27 0 0 1 8.55 0"/></g><g filter="url(#B)"><path fill="url(#C)" d="M24.5 10.52a4.4 4.4 0 1 1-8.8 0 4.4 4.4 0 0 1 8.8 0"/></g><g filter="url(#D)"><path fill="url(#E)" d="M10.18 10.65a1.01 1.01 0 1 1-2.03 0 1.01 1.01 0 0 1 2.03 0"/></g><g filter="url(#F)"><path fill="url(#G)" d="M20.89 10.65a1.01 1.01 0 1 1-2.02 0 1.01 1.01 0 0 1 2.02 0"/></g><path fill="url(#H)" d="M2.02 19.14a.75.75 0 0 1 1.5 0v4.14a.75.75 0 1 1-1.5 0z"/><path fill="url(#I)" d="M2.02 19.14a.75.75 0 0 1 1.5 0v4.14a.75.75 0 1 1-1.5 0z"/><path fill="url(#J)" d="M2.02 19.14a.75.75 0 0 1 1.5 0v4.14a.75.75 0 1 1-1.5 0z"/><g filter="url(#K)"><rect width="2.34" height=".48" x="15.34" y="25.3" fill="url(#L)" rx=".24"/><rect width="2.34" height=".48" x="15.34" y="25.3" fill="url(#M)" rx=".24"/></g><g filter="url(#N)"><rect width="15.66" height="11" x="6.21" y="17.53" stroke="url(#O)" stroke-width=".5" rx="1"/></g><defs><filter id="a" width="12.97" height="6.25" x="7.49" y="13.73" color-interpolation-filters="sRGB" filterUnits="userSpaceOnUse"><feFlood flood-opacity="0" result="BackgroundImageFix"/><feBlend in="SourceGraphic" in2="BackgroundImageFix" result="shape"/><feColorMatrix in="SourceAlpha" result="hardAlpha" values="0 0 0 0 0 0 0 0 0 0 0 0 0 0 0 0 0 0 127 0"/><feOffset dx=".5" dy=".5"/><feGaussianBlur stdDeviation=".25"/><feComposite in2="hardAlpha" k2="-1" k3="1" operator="arithmetic"/><feColorMatrix values="0 0 0 0 0.188235 0 0 0 0 0.156863 0 0 0 0 0.223529 0 0 0 1 0"/><feBlend in2="shape" result="effect1_innerShadow_18_20039"/><feColorMatrix in="SourceAlpha" result="hardAlpha" values="0 0 0 0 0 0 0 0 0 0 0 0 0 0 0 0 0 0 127 0"/><feOffset dx="-.5"/><feGaussianBlur stdDeviation=".25"/><feComposite in2="hardAlpha" k2="-1" k3="1" operator="arithmetic"/><feColorMatrix values="0 0 0 0 0.321569 0 0 0 0 0.290196 0 0 0 0 0.356863 0 0 0 1 0"/><feBlend in2="effect1_innerShadow_18_20039" result="effect2_innerShadow_18_20039"/></filter><filter id="f" width="18.34" height="13.95" x="4.69" y="16.2" color-interpolation-filters="sRGB" filterUnits="userSpaceOnUse"><feFlood flood-opacity="0" result="BackgroundImageFix"/><feBlend in="SourceGraphic" in2="BackgroundImageFix" result="shape"/><feColorMatrix in="SourceAlpha" result="hardAlpha" values="0 0 0 0 0 0 0 0 0 0 0 0 0 0 0 0 0 0 127 0"/><feOffset dx="-.5" dy=".5"/><feGaussianBlur stdDeviation=".25"/><feComposite in2="hardAlpha" k2="-1" k3="1" operator="arithmetic"/><feColorMatrix values="0 0 0 0 0.215686 0 0 0 0 0.152941 0 0 0 0 0.270588 0 0 0 1 0"/><feBlend in2="shape" result="effect1_innerShadow_18_20039"/><feColorMatrix in="SourceAlpha" result="hardAlpha" values="0 0 0 0 0 0 0 0 0 0 0 0 0 0 0 0 0 0 127 0"/><feOffset dx=".5" dy="-.5"/><feGaussianBlur stdDeviation=".25"/><feComposite in2="hardAlpha" k2="-1" k3="1" operator="arithmetic"/><feColorMatrix values="0 0 0 0 0.215686 0 0 0 0 0.152941 0 0 0 0 0.270588 0 0 0 1 0"/><feBlend in2="effect1_innerShadow_18_20039" result="effect2_innerShadow_18_20039"/><feColorMatrix in="SourceAlpha" result="hardAlpha" values="0 0 0 0 0 0 0 0 0 0 0 0 0 0 0 0 0 0 127 0"/><feOffset dy="-.25"/><feGaussianBlur stdDeviation=".25"/><feComposite in2="hardAlpha" k2="-1" k3="1" operator="arithmetic"/><feColorMatrix values="0 0 0 0 0.4 0 0 0 0 0.286275 0 0 0 0 0.501961 0 0 0 1 0"/><feBlend in2="effect2_innerShadow_18_20039" result="effect3_innerShadow_18_20039"/></filter><filter id="h" width="12.23" height="4.38" x="7.85" y="23.49" color-interpolation-filters="sRGB" filterUnits="userSpaceOnUse"><feFlood flood-opacity="0" result="BackgroundImageFix"/><feBlend in="SourceGraphic" in2="BackgroundImageFix" result="shape"/><feColorMatrix in="SourceAlpha" result="hardAlpha" values="0 0 0 0 0 0 0 0 0 0 0 0 0 0 0 0 0 0 127 0"/><feOffset dy=".2"/><feGaussianBlur stdDeviation=".2"/><feComposite in2="hardAlpha" k2="-1" k3="1" operator="arithmetic"/><feColorMatrix values="0 0 0 0 0.654902 0 0 0 0 0.564706 0 0 0 0 0.745098 0 0 0 1 0"/><feBlend in2="shape" result="effect1_innerShadow_18_20039"/><feColorMatrix in="SourceAlpha" result="hardAlpha" values="0 0 0 0 0 0 0 0 0 0 0 0 0 0 0 0 0 0 127 0"/><feOffset dx=".2" dy="-.2"/><feGaussianBlur stdDeviation=".2"/><feComposite in2="hardAlpha" k2="-1" k3="1" operator="arithmetic"/><feColorMatrix values="0 0 0 0 0.682353 0 0 0 0 0.631373 0 0 0 0 0.717647 0 0 0 1 0"/><feBlend in2="effect1_innerShadow_18_20039" result="effect2_innerShadow_18_20039"/></filter><filter id="j" width="3.32" height="3.32" x="9.04" y="24.27" color-interpolation-filters="sRGB" filterUnits="userSpaceOnUse"><feFlood flood-opacity="0" result="BackgroundImageFix"/><feColorMatrix in="SourceAlpha" result="hardAlpha" values="0 0 0 0 0 0 0 0 0 0 0 0 0 0 0 0 0 0 127 0"/><feOffset dx="-.25" dy=".25"/><feGaussianBlur stdDeviation=".25"/><feComposite in2="hardAlpha" operator="out"/><feColorMatrix values="0 0 0 0 0.619608 0 0 0 0 0.505882 0 0 0 0 0.662745 0 0 0 1 0"/><feBlend in2="BackgroundImageFix" result="effect1_dropShadow_18_20039"/><feBlend in="SourceGraphic" in2="effect1_dropShadow_18_20039" result="shape"/></filter><filter id="m" width="4" height="2.41" x="14.18" y="24.73" color-interpolation-filters="sRGB" filterUnits="userSpaceOnUse"><feFlood flood-opacity="0" result="BackgroundImageFix"/><feColorMatrix in="SourceAlpha" result="hardAlpha" values="0 0 0 0 0 0 0 0 0 0 0 0 0 0 0 0 0 0 127 0"/><feOffset dx="-.25" dy=".25"/><feGaussianBlur stdDeviation=".25"/><feComposite in2="hardAlpha" operator="out"/><feColorMatrix values="0 0 0 0 0.607843 0 0 0 0 0.529412 0 0 0 0 0.682353 0 0 0 1 0"/><feBlend in2="BackgroundImageFix" result="effect1_dropShadow_18_20039"/><feBlend in="SourceGraphic" in2="effect1_dropShadow_18_20039" result="shape"/><feColorMatrix in="SourceAlpha" result="hardAlpha" values="0 0 0 0 0 0 0 0 0 0 0 0 0 0 0 0 0 0 127 0"/><feOffset dy="-.25"/><feGaussianBlur stdDeviation=".25"/><feComposite in2="hardAlpha" k2="-1" k3="1" operator="arithmetic"/><feColorMatrix values="0 0 0 0 0.329412 0 0 0 0 0.203922 0 0 0 0 0.427451 0 0 0 1 0"/><feBlend in2="shape" result="effect2_innerShadow_18_20039"/></filter><filter id="o" width="5.61" height="13.98" x="24.88" y="16.18" color-interpolation-filters="sRGB" filterUnits="userSpaceOnUse"><feFlood flood-opacity="0" result="BackgroundImageFix"/><feBlend in="SourceGraphic" in2="BackgroundImageFix" result="shape"/><feColorMatrix in="SourceAlpha" result="hardAlpha" values="0 0 0 0 0 0 0 0 0 0 0 0 0 0 0 0 0 0 127 0"/><feOffset dx=".5" dy=".5"/><feGaussianBlur stdDeviation=".5"/><feComposite in2="hardAlpha" k2="-1" k3="1" operator="arithmetic"/><feColorMatrix values="0 0 0 0 0.211765 0 0 0 0 0.168627 0 0 0 0 0.258824 0 0 0 1 0"/><feBlend in2="shape" result="effect1_innerShadow_18_20039"/><feColorMatrix in="SourceAlpha" result="hardAlpha" values="0 0 0 0 0 0 0 0 0 0 0 0 0 0 0 0 0 0 127 0"/><feOffset dy="-.5"/><feGaussianBlur stdDeviation=".5"/><feComposite in2="hardAlpha" k2="-1" k3="1" operator="arithmetic"/><feColorMatrix values="0 0 0 0 0.392157 0 0 0 0 0.27451 0 0 0 0 0.494118 0 0 0 1 0"/><feBlend in2="effect1_innerShadow_18_20039" result="effect2_innerShadow_18_20039"/></filter><filter id="t" width="10.45" height="11.45" x="3.69" y="4.7" color-interpolation-filters="sRGB" filterUnits="userSpaceOnUse"><feFlood flood-opacity="0" result="BackgroundImageFix"/><feBlend in="SourceGraphic" in2="BackgroundImageFix" result="shape"/><feColorMatrix in="SourceAlpha" result="hardAlpha" values="0 0 0 0 0 0 0 0 0 0 0 0 0 0 0 0 0 0 127 0"/><feOffset dy="-1"/><feGaussianBlur stdDeviation=".5"/><feComposite in2="hardAlpha" k2="-1" k3="1" operator="arithmetic"/><feColorMatrix values="0 0 0 0 0.231373 0 0 0 0 0.129412 0 0 0 0 0.309804 0 0 0 1 0"/><feBlend in2="shape" result="effect1_innerShadow_18_20039"/><feColorMatrix in="SourceAlpha" result="hardAlpha" values="0 0 0 0 0 0 0 0 0 0 0 0 0 0 0 0 0 0 127 0"/><feOffset dy="-.2"/><feGaussianBlur stdDeviation=".25"/><feComposite in2="hardAlpha" k2="-1" k3="1" operator="arithmetic"/><feColorMatrix values="0 0 0 0 0.298039 0 0 0 0 0.113725 0 0 0 0 0.419608 0 0 0 1 0"/><feBlend in2="effect1_innerShadow_18_20039" result="effect2_innerShadow_18_20039"/><feColorMatrix in="SourceAlpha" result="hardAlpha" values="0 0 0 0 0 0 0 0 0 0 0 0 0 0 0 0 0 0 127 0"/><feOffset dx="-.5" dy=".5"/><feGaussianBlur stdDeviation=".5"/><feComposite in2="hardAlpha" k2="-1" k3="1" operator="arithmetic"/><feColorMatrix values="0 0 0 0 0.345098 0 0 0 0 0.301961 0 0 0 0 0.388235 0 0 0 1 0"/><feBlend in2="effect2_innerShadow_18_20039" result="effect3_innerShadow_18_20039"/></filter><filter id="u" width="9.55" height="9.55" x="4.39" y="5.87" color-interpolation-filters="sRGB" filterUnits="userSpaceOnUse"><feFlood flood-opacity="0" result="BackgroundImageFix"/><feBlend in="SourceGraphic" in2="BackgroundImageFix" result="shape"/><feGaussianBlur result="effect1_foregroundBlur_18_20039" stdDeviation=".25"/></filter><filter id="w" width="9.8" height="9.8" x="4.39" y="5.62" color-interpolation-filters="sRGB" filterUnits="userSpaceOnUse"><feFlood flood-opacity="0" result="BackgroundImageFix"/><feBlend in="SourceGraphic" in2="BackgroundImageFix" result="shape"/><feGaussianBlur result="effect1_foregroundBlur_18_20039" stdDeviation=".25"/></filter><filter id="y" width="10.45" height="11.45" x="14.51" y="4.7" color-interpolation-filters="sRGB" filterUnits="userSpaceOnUse"><feFlood flood-opacity="0" result="BackgroundImageFix"/><feBlend in="SourceGraphic" in2="BackgroundImageFix" result="shape"/><feColorMatrix in="SourceAlpha" result="hardAlpha" values="0 0 0 0 0 0 0 0 0 0 0 0 0 0 0 0 0 0 127 0"/><feOffset dy="-1"/><feGaussianBlur stdDeviation=".5"/><feComposite in2="hardAlpha" k2="-1" k3="1" operator="arithmetic"/><feColorMatrix values="0 0 0 0 0.231373 0 0 0 0 0.129412 0 0 0 0 0.309804 0 0 0 1 0"/><feBlend in2="shape" result="effect1_innerShadow_18_20039"/><feColorMatrix in="SourceAlpha" result="hardAlpha" values="0 0 0 0 0 0 0 0 0 0 0 0 0 0 0 0 0 0 127 0"/><feOffset dy="-.2"/><feGaussianBlur stdDeviation=".25"/><feComposite in2="hardAlpha" k2="-1" k3="1" operator="arithmetic"/><feColorMatrix values="0 0 0 0 0.298039 0 0 0 0 0.113725 0 0 0 0 0.419608 0 0 0 1 0"/><feBlend in2="effect1_innerShadow_18_20039" result="effect2_innerShadow_18_20039"/><feColorMatrix in="SourceAlpha" result="hardAlpha" values="0 0 0 0 0 0 0 0 0 0 0 0 0 0 0 0 0 0 127 0"/><feOffset dx="-.5" dy=".5"/><feGaussianBlur stdDeviation=".5"/><feComposite in2="hardAlpha" k2="-1" k3="1" operator="arithmetic"/><feColorMatrix values="0 0 0 0 0.345098 0 0 0 0 0.301961 0 0 0 0 0.388235 0 0 0 1 0"/><feBlend in2="effect2_innerShadow_18_20039" result="effect3_innerShadow_18_20039"/></filter><filter id="z" width="9.55" height="9.55" x="15.21" y="5.87" color-interpolation-filters="sRGB" filterUnits="userSpaceOnUse"><feFlood flood-opacity="0" result="BackgroundImageFix"/><feBlend in="SourceGraphic" in2="BackgroundImageFix" result="shape"/><feGaussianBlur result="effect1_foregroundBlur_18_20039" stdDeviation=".25"/></filter><filter id="B" width="9.8" height="9.8" x="15.21" y="5.62" color-interpolation-filters="sRGB" filterUnits="userSpaceOnUse"><feFlood flood-opacity="0" result="BackgroundImageFix"/><feBlend in="SourceGraphic" in2="BackgroundImageFix" result="shape"/><feGaussianBlur result="effect1_foregroundBlur_18_20039" stdDeviation=".25"/></filter><filter id="D" width="3.02" height="3.02" x="7.4" y="9.38" color-interpolation-filters="sRGB" filterUnits="userSpaceOnUse"><feFlood flood-opacity="0" result="BackgroundImageFix"/><feColorMatrix in="SourceAlpha" result="hardAlpha" values="0 0 0 0 0 0 0 0 0 0 0 0 0 0 0 0 0 0 127 0"/><feOffset dx="-.25" dy=".25"/><feGaussianBlur stdDeviation=".25"/><feComposite in2="hardAlpha" operator="out"/><feColorMatrix values="0 0 0 0 0.203922 0 0 0 0 0.141176 0 0 0 0 0.262745 0 0 0 1 0"/><feBlend in2="BackgroundImageFix" result="effect1_dropShadow_18_20039"/><feBlend in="SourceGraphic" in2="effect1_dropShadow_18_20039" result="shape"/><feColorMatrix in="SourceAlpha" result="hardAlpha" values="0 0 0 0 0 0 0 0 0 0 0 0 0 0 0 0 0 0 127 0"/><feOffset dx="-.1" dy=".1"/><feGaussianBlur stdDeviation=".15"/><feComposite in2="hardAlpha" k2="-1" k3="1" operator="arithmetic"/><feColorMatrix values="0 0 0 0 0.701961 0 0 0 0 0.682353 0 0 0 0 0.72549 0 0 0 1 0"/><feBlend in2="shape" result="effect2_innerShadow_18_20039"/></filter><filter id="F" width="3.02" height="3.02" x="18.12" y="9.38" color-interpolation-filters="sRGB" filterUnits="userSpaceOnUse"><feFlood flood-opacity="0" result="BackgroundImageFix"/><feColorMatrix in="SourceAlpha" result="hardAlpha" values="0 0 0 0 0 0 0 0 0 0 0 0 0 0 0 0 0 0 127 0"/><feOffset dx="-.25" dy=".25"/><feGaussianBlur stdDeviation=".25"/><feComposite in2="hardAlpha" operator="out"/><feColorMatrix values="0 0 0 0 0.203922 0 0 0 0 0.141176 0 0 0 0 0.262745 0 0 0 1 0"/><feBlend in2="BackgroundImageFix" result="effect1_dropShadow_18_20039"/><feBlend in="SourceGraphic" in2="effect1_dropShadow_18_20039" result="shape"/><feColorMatrix in="SourceAlpha" result="hardAlpha" values="0 0 0 0 0 0 0 0 0 0 0 0 0 0 0 0 0 0 127 0"/><feOffset dx="-.1" dy=".1"/><feGaussianBlur stdDeviation=".15"/><feComposite in2="hardAlpha" k2="-1" k3="1" operator="arithmetic"/><feColorMatrix values="0 0 0 0 0.701961 0 0 0 0 0.682353 0 0 0 0 0.72549 0 0 0 1 0"/><feBlend in2="shape" result="effect2_innerShadow_18_20039"/></filter><filter id="K" width="3.34" height="1.48" x="14.84" y="24.8" color-interpolation-filters="sRGB" filterUnits="userSpaceOnUse"><feFlood flood-opacity="0" result="BackgroundImageFix"/><feBlend in="SourceGraphic" in2="BackgroundImageFix" result="shape"/><feGaussianBlur result="effect1_foregroundBlur_18_20039" stdDeviation=".25"/></filter><filter id="N" width="18.16" height="13.5" x="4.96" y="16.28" color-interpolation-filters="sRGB" filterUnits="userSpaceOnUse"><feFlood flood-opacity="0" result="BackgroundImageFix"/><feBlend in="SourceGraphic" in2="BackgroundImageFix" result="shape"/><feGaussianBlur result="effect1_foregroundBlur_18_20039" stdDeviation=".5"/></filter><linearGradient id="d" x1="23.24" x2="23.24" y1="18.69" y2="24.75" gradientUnits="userSpaceOnUse"><stop stop-color="#99979b"/><stop offset="1" stop-color="#aba2b5"/></linearGradient><linearGradient id="e" x1="23.24" x2="23.24" y1="23.18" y2="27.67" gradientUnits="userSpaceOnUse"><stop stop-color="#9673b6" stop-opacity="0"/><stop offset="1" stop-color="#9673b6"/></linearGradient><linearGradient id="g" x1="20.05" x2="10.52" y1="17.19" y2="29.44" gradientUnits="userSpaceOnUse"><stop stop-color="#524064"/><stop offset="1" stop-color="#453b50"/></linearGradient><linearGradient id="i" x1="13.86" x2="13.86" y1="23.69" y2="27.67" gradientUnits="userSpaceOnUse"><stop stop-color="#ae9ebd"/><stop offset="1" stop-color="#afa1bc"/></linearGradient><linearGradient id="n" x1="15.06" x2="17.8" y1="26.06" y2="26.06" gradientUnits="userSpaceOnUse"><stop offset=".18" stop-color="#3f344b"/><stop offset="1" stop-color="#443553"/></linearGradient><linearGradient id="p" x1="27.43" x2="27.43" y1="18.47" y2="29.44" gradientUnits="userSpaceOnUse"><stop stop-color="#362a43"/><stop offset="1" stop-color="#412756"/></linearGradient><linearGradient id="q" x1="29.98" x2="29.08" y1="28.56" y2="28.56" gradientUnits="userSpaceOnUse"><stop stop-color="#3c2a4c"/><stop offset="1" stop-color="#3c2a4c" stop-opacity="0"/></linearGradient><linearGradient id="s" x1="3.79" x2="3.79" y1="20.28" y2="22.73" gradientUnits="userSpaceOnUse"><stop stop-color="#746f7a"/><stop offset="1" stop-color="#8d6dab"/></linearGradient><linearGradient id="v" x1="12.46" x2="5.86" y1="8.88" y2="13.39" gradientUnits="userSpaceOnUse"><stop stop-color="#4f3f61"/><stop offset="1" stop-color="#443a4f"/></linearGradient><linearGradient id="A" x1="23.27" x2="16.67" y1="8.88" y2="13.39" gradientUnits="userSpaceOnUse"><stop stop-color="#4f3f61"/><stop offset="1" stop-color="#443a4f"/></linearGradient><linearGradient id="H" x1="2.02" x2="3.53" y1="21.56" y2="21.56" gradientUnits="userSpaceOnUse"><stop stop-color="#3b3145"/><stop offset="1" stop-color="#281837"/></linearGradient><linearGradient id="L" x1="17.78" x2="15.07" y1="25.55" y2="25.55" gradientUnits="userSpaceOnUse"><stop stop-color="#675f73"/><stop offset="1" stop-color="#675f73" stop-opacity="0"/></linearGradient><linearGradient id="O" x1="23.04" x2="17.47" y1="16.81" y2="24.82" gradientUnits="userSpaceOnUse"><stop offset=".27" stop-color="#695e75"/><stop offset="1" stop-color="#695e75" stop-opacity="0"/></linearGradient><radialGradient id="b" cx="0" cy="0" r="1" gradientTransform="rotate(52.67 -8.99 16.73)scale(2.73134 5.81218)" gradientUnits="userSpaceOnUse"><stop offset=".25" stop-color="#2b2035"/><stop offset="1" stop-color="#2b2035" stop-opacity="0"/></radialGradient><radialGradient id="c" cx="0" cy="0" r="1" gradientTransform="rotate(124.13 5.65 12.09)scale(3.39764 7.07226)" gradientUnits="userSpaceOnUse"><stop stop-color="#332146"/><stop offset="1" stop-color="#332146" stop-opacity="0"/></radialGradient><radialGradient id="k" cx="0" cy="0" r="1" gradientTransform="rotate(115.76 -1.92 16.01)scale(2.37256)" gradientUnits="userSpaceOnUse"><stop stop-color="#f72b49"/><stop offset="1" stop-color="#f32d95"/></radialGradient><radialGradient id="l" cx="0" cy="0" r="1" gradientTransform="rotate(132.31 .18 15.15)scale(.82402 .8555)" gradientUnits="userSpaceOnUse"><stop offset=".3" stop-color="#ff576f"/><stop offset="1" stop-color="#ff576f" stop-opacity="0"/></radialGradient><radialGradient id="r" cx="0" cy="0" r="1" gradientTransform="matrix(0 5.71875 -.67946 0 29.8 21.9)" gradientUnits="userSpaceOnUse"><stop offset=".26" stop-color="#696171"/><stop offset="1" stop-color="#696171" stop-opacity="0"/></radialGradient><radialGradient id="x" cx="0" cy="0" r="1" gradientTransform="rotate(-42.8 18.87 -5.02)scale(5.42477 5.59785)" gradientUnits="userSpaceOnUse"><stop offset=".68" stop-color="#443a4f" stop-opacity="0"/><stop offset="1" stop-color="#6a6075"/></radialGradient><radialGradient id="C" cx="0" cy="0" r="1" gradientTransform="rotate(-42.8 24.28 -18.82)scale(5.42477 5.59785)" gradientUnits="userSpaceOnUse"><stop offset=".68" stop-color="#443a4f" stop-opacity="0"/><stop offset="1" stop-color="#6a6075"/></radialGradient><radialGradient id="E" cx="0" cy="0" r="1" gradientTransform="matrix(0 1.8125 -1.64486 0 9.17 10.05)" gradientUnits="userSpaceOnUse"><stop stop-color="#a9a0b3"/><stop offset="1" stop-color="#9984af"/></radialGradient><radialGradient id="G" cx="0" cy="0" r="1" gradientTransform="matrix(0 1.8125 -1.64486 0 19.88 10.05)" gradientUnits="userSpaceOnUse"><stop stop-color="#a9a0b3"/><stop offset="1" stop-color="#9984af"/></radialGradient><radialGradient id="I" cx="0" cy="0" r="1" gradientTransform="matrix(0 3.28125 -.60632 0 2.77 20.64)" gradientUnits="userSpaceOnUse"><stop offset=".29" stop-color="#443b4f"/><stop offset="1" stop-color="#443b4f" stop-opacity="0"/></radialGradient><radialGradient id="J" cx="0" cy="0" r="1" gradientTransform="matrix(0 3.53125 -1.41348 0 2.77 20.5)" gradientUnits="userSpaceOnUse"><stop offset=".75" stop-color="#523968" stop-opacity="0"/><stop offset="1" stop-color="#523968"/></radialGradient><radialGradient id="M" cx="0" cy="0" r="1" gradientTransform="matrix(-.52918 0 0 -.83036 17.64 25.63)" gradientUnits="userSpaceOnUse"><stop offset=".16" stop-color="#756c80"/><stop offset="1" stop-color="#685f73" stop-opacity="0"/></radialGradient></defs></svg>