<svg xmlns="http://www.w3.org/2000/svg" width="32" height="32" fill="none" viewBox="0 0 32 32"><path fill="url(#a)" d="M20.35 7.08c1.22 2.68 2.71 5.97 3.83 7.28.22-.5.2-1.36.45-3.44A2.03 2.03 0 0 1 27.06 9c1.47.3 1.92 1.8 1.87 2.34-.08.88-.08.85-.24 2.97-.23 3.09.96 5.43 1.07 8.08 0 5-4.38 7.45-7.44 7.45-2.45 0-4.9-1.57-5.82-2.36l-4.6-4.2a20 20 0 0 1-2.56-2.7c-1.66-2.27.74-3.83 2.1-3.44-.11-.08-.75-1.12-1.06-1.63-.83-1.66 0-2.76.6-3.06 1.4-.7 2.4.08 2.73.5q-.18-.29-1.13-2.6a2.1 2.1 0 0 1 .96-2.77c1.25-.58 2.43.15 2.73.8l1.27 2.8a37 37 0 0 1-.89-2.45c-.32-1.36.47-2.29.97-2.53.7-.33 2.14-.42 2.72.84z"/><path fill="url(#b)" d="M20.35 7.08c1.22 2.68 2.71 5.97 3.83 7.28.22-.5.2-1.36.45-3.44A2.03 2.03 0 0 1 27.06 9c1.47.3 1.92 1.8 1.87 2.34-.08.88-.08.85-.24 2.97-.23 3.09.96 5.43 1.07 8.08 0 5-4.38 7.45-7.44 7.45-2.45 0-4.9-1.57-5.82-2.36l-4.6-4.2a20 20 0 0 1-2.56-2.7c-1.66-2.27.74-3.83 2.1-3.44-.11-.08-.75-1.12-1.06-1.63-.83-1.66 0-2.76.6-3.06 1.4-.7 2.4.08 2.73.5q-.18-.29-1.13-2.6a2.1 2.1 0 0 1 .96-2.77c1.25-.58 2.43.15 2.73.8l1.27 2.8a37 37 0 0 1-.89-2.45c-.32-1.36.47-2.29.97-2.53.7-.33 2.14-.42 2.72.84z"/><path fill="url(#c)" d="M28.93 11.34c-.08.88-.08.85-.24 2.97-.08 1.09.51 5.12.51 5.12-1.44.47-4.57-.16-5.02-5.07.22-.5.2-1.36.45-3.44A2.03 2.03 0 0 1 27.06 9c1.47.3 1.92 1.8 1.87 2.34"/><path fill="url(#d)" d="M28.93 11.34c-.08.88-.08.85-.24 2.97-.08 1.09.51 5.12.51 5.12-1.44.47-4.57-.16-5.02-5.07.22-.5.2-1.36.45-3.44A2.03 2.03 0 0 1 27.06 9c1.47.3 1.92 1.8 1.87 2.34"/><path fill="url(#e)" d="M28.93 11.34c-.08.88-.08.85-.24 2.97-.08 1.09.51 5.12.51 5.12-1.44.47-4.57-.16-5.02-5.07.22-.5.2-1.36.45-3.44A2.03 2.03 0 0 1 27.06 9c1.47.3 1.92 1.8 1.87 2.34"/><path fill="url(#f)" d="M20.35 7.08c1.22 2.68 2.71 5.97 3.83 7.28a2.18 2.18 0 0 1-2.66 1.94c-1.46-.42-2-1.45-2-1.45s-.39-.59-.76-1.23c-.43-.75-.35-.74-1.07-2.09a30 30 0 0 1-1.04-2.8c-.32-1.36.47-2.29.97-2.53.7-.33 2.14-.42 2.72.84z"/><path fill="url(#g)" d="M20.35 7.08c1.22 2.68 2.71 5.97 3.83 7.28a2.18 2.18 0 0 1-2.66 1.94c-1.46-.42-2-1.45-2-1.45s-.39-.59-.76-1.23c-.43-.75-.35-.74-1.07-2.09a30 30 0 0 1-1.04-2.8c-.32-1.36.47-2.29.97-2.53.7-.33 2.14-.42 2.72.84z"/><path fill="url(#h)" d="M20.35 7.08c1.22 2.68 2.71 5.97 3.83 7.28a2.18 2.18 0 0 1-2.66 1.94c-1.46-.42-2-1.45-2-1.45s-.39-.59-.76-1.23c-.43-.75-.35-.74-1.07-2.09a30 30 0 0 1-1.04-2.8c-.32-1.36.47-2.29.97-2.53.7-.33 2.14-.42 2.72.84z"/><path fill="url(#i)" d="M20.35 7.08c1.22 2.68 2.71 5.97 3.83 7.28a2.18 2.18 0 0 1-2.66 1.94c-1.46-.42-2-1.45-2-1.45s-.39-.59-.76-1.23c-.43-.75-.35-.74-1.07-2.09a30 30 0 0 1-1.04-2.8c-.32-1.36.47-2.29.97-2.53.7-.33 2.14-.42 2.72.84z"/><path fill="url(#j)" d="M20.35 7.08c1.22 2.68 2.71 5.97 3.83 7.28a2.18 2.18 0 0 1-2.66 1.94c-1.46-.42-2-1.45-2-1.45s-.39-.59-.76-1.23c-.43-.75-.35-.74-1.07-2.09a30 30 0 0 1-1.04-2.8c-.32-1.36.47-2.29.97-2.53.7-.33 2.14-.42 2.72.84z"/><path fill="url(#k)" d="M16.27 8.39c.2.43 1.55 3.4 1.42 3.14.37.82 1.5 2.82 1.82 3.37.72 1.2-.1 2.2-.62 2.51-1.52.88-2.39-.24-2.39-.24-.8-1.17-1.47-2.15-2.79-4.23-.31-.6-.9-1.93-1.13-2.58-.57-1.6.38-2.5.96-2.78 1.25-.58 2.43.15 2.73.8"/><path fill="url(#l)" d="M16.27 8.39c.2.43 1.55 3.4 1.42 3.14.37.82 1.5 2.82 1.82 3.37.72 1.2-.1 2.2-.62 2.51-1.52.88-2.39-.24-2.39-.24-.8-1.17-1.47-2.15-2.79-4.23-.31-.6-.9-1.93-1.13-2.58-.57-1.6.38-2.5.96-2.78 1.25-.58 2.43.15 2.73.8"/><path fill="url(#m)" d="M16.27 8.39c.2.43 1.55 3.4 1.42 3.14.37.82 1.5 2.82 1.82 3.37.72 1.2-.1 2.2-.62 2.51-1.52.88-2.39-.24-2.39-.24-.8-1.17-1.47-2.15-2.79-4.23-.31-.6-.9-1.93-1.13-2.58-.57-1.6.38-2.5.96-2.78 1.25-.58 2.43.15 2.73.8"/><path fill="url(#n)" d="M16.27 8.39c.2.43 1.55 3.4 1.42 3.14.37.82 1.5 2.82 1.82 3.37.72 1.2-.1 2.2-.62 2.51-1.52.88-2.39-.24-2.39-.24-.8-1.17-1.47-2.15-2.79-4.23-.31-.6-.9-1.93-1.13-2.58-.57-1.6.38-2.5.96-2.78 1.25-.58 2.43.15 2.73.8"/><path fill="url(#o)" d="M16.27 8.39c.2.43 1.55 3.4 1.42 3.14.37.82 1.5 2.82 1.82 3.37.72 1.2-.1 2.2-.62 2.51-1.52.88-2.39-.24-2.39-.24-.8-1.17-1.47-2.15-2.79-4.23-.31-.6-.9-1.93-1.13-2.58-.57-1.6.38-2.5.96-2.78 1.25-.58 2.43.15 2.73.8"/><path fill="url(#p)" d="M16.27 8.39c.2.43 1.55 3.4 1.42 3.14.37.82 1.5 2.82 1.82 3.37.72 1.2-.1 2.2-.62 2.51-1.52.88-2.39-.24-2.39-.24-.8-1.17-1.47-2.15-2.79-4.23-.31-.6-.9-1.93-1.13-2.58-.57-1.6.38-2.5.96-2.78 1.25-.58 2.43.15 2.73.8"/><path fill="url(#q)" d="M10.99 12.44c1.38-.68 2.4.1 2.72.51 1 1.51 2.19 3.22 2.74 4.14 1.47 2.42-1.54 3.48-1.54 3.48-2.77-3.12-3.28-3.28-3.48-3.43-.1-.08-.74-1.12-1.05-1.63-.83-1.66 0-2.76.6-3.07"/><path fill="url(#r)" d="M10.99 12.44c1.38-.68 2.4.1 2.72.51 1 1.51 2.19 3.22 2.74 4.14 1.47 2.42-1.54 3.48-1.54 3.48-2.77-3.12-3.28-3.28-3.48-3.43-.1-.08-.74-1.12-1.05-1.63-.83-1.66 0-2.76.6-3.07"/><path fill="url(#s)" d="M10.99 12.44c1.38-.68 2.4.1 2.72.51 1 1.51 2.19 3.22 2.74 4.14 1.47 2.42-1.54 3.48-1.54 3.48-2.77-3.12-3.28-3.28-3.48-3.43-.1-.08-.74-1.12-1.05-1.63-.83-1.66 0-2.76.6-3.07"/><path fill="url(#t)" d="M10.99 12.44c1.38-.68 2.4.1 2.72.51 1 1.51 2.19 3.22 2.74 4.14 1.47 2.42-1.54 3.48-1.54 3.48-2.77-3.12-3.28-3.28-3.48-3.43-.1-.08-.74-1.12-1.05-1.63-.83-1.66 0-2.76.6-3.07"/><path fill="url(#u)" d="M10.99 12.44c1.38-.68 2.4.1 2.72.51 1 1.51 2.19 3.22 2.74 4.14 1.47 2.42-1.54 3.48-1.54 3.48-2.77-3.12-3.28-3.28-3.48-3.43-.1-.08-.74-1.12-1.05-1.63-.83-1.66 0-2.76.6-3.07"/><path fill="url(#v)" d="M10.99 12.44c1.38-.68 2.4.1 2.72.51 1 1.51 2.19 3.22 2.74 4.14 1.47 2.42-1.54 3.48-1.54 3.48-2.77-3.12-3.28-3.28-3.48-3.43-.1-.08-.74-1.12-1.05-1.63-.83-1.66 0-2.76.6-3.07"/><path fill="url(#w)" d="M9.34 20.57c-1.66-2.26.74-3.82 2.1-3.43.63.4 1.62 1.39 2.04 1.84 2.69 2.61 2.24 3.42 1.49 4.3-.73.6-1.67 1.1-3.07 0a20 20 0 0 1-2.56-2.7"/><path fill="url(#x)" d="M9.34 20.57c-1.66-2.26.74-3.82 2.1-3.43.63.4 1.62 1.39 2.04 1.84 2.69 2.61 2.24 3.42 1.49 4.3-.73.6-1.67 1.1-3.07 0a20 20 0 0 1-2.56-2.7"/><path fill="url(#y)" d="M9.34 20.57c-1.66-2.26.74-3.82 2.1-3.43.63.4 1.62 1.39 2.04 1.84 2.69 2.61 2.24 3.42 1.49 4.3-.73.6-1.67 1.1-3.07 0a20 20 0 0 1-2.56-2.7"/><path fill="url(#z)" d="M9.34 20.57c-1.66-2.26.74-3.82 2.1-3.43.63.4 1.62 1.39 2.04 1.84 2.69 2.61 2.24 3.42 1.49 4.3-.73.6-1.67 1.1-3.07 0a20 20 0 0 1-2.56-2.7"/><path fill="url(#A)" d="M9.34 20.57c-1.66-2.26.74-3.82 2.1-3.43.63.4 1.62 1.39 2.04 1.84 2.69 2.61 2.24 3.42 1.49 4.3-.73.6-1.67 1.1-3.07 0a20 20 0 0 1-2.56-2.7"/><path fill="url(#B)" d="M20.35 7.08c1.22 2.68 2.71 5.97 3.83 7.28.22-.5.2-1.36.45-3.44A2.03 2.03 0 0 1 27.06 9c1.47.3 1.92 1.8 1.87 2.34-.08.88-.08.85-.24 2.97-.23 3.09.96 5.43 1.07 8.08 0 5-4.38 7.45-7.44 7.45-2.45 0-4.9-1.57-5.82-2.36l-4.6-4.2a20 20 0 0 1-2.56-2.7c-1.66-2.27.74-3.83 2.1-3.44-.11-.08-.75-1.12-1.06-1.63-.83-1.66 0-2.76.6-3.06 1.4-.7 2.4.08 2.73.5q-.18-.29-1.13-2.6a2.1 2.1 0 0 1 .96-2.77c1.25-.58 2.43.15 2.73.8l1.27 2.8a37 37 0 0 1-.89-2.45c-.32-1.36.47-2.29.97-2.53.7-.33 2.14-.42 2.72.84z"/><path fill="url(#C)" d="M20.35 7.08c1.22 2.68 2.71 5.97 3.83 7.28.22-.5.2-1.36.45-3.44A2.03 2.03 0 0 1 27.06 9c1.47.3 1.92 1.8 1.87 2.34-.08.88-.08.85-.24 2.97-.23 3.09.96 5.43 1.07 8.08 0 5-4.38 7.45-7.44 7.45-2.45 0-4.9-1.57-5.82-2.36l-4.6-4.2a20 20 0 0 1-2.56-2.7c-1.66-2.27.74-3.83 2.1-3.44-.11-.08-.75-1.12-1.06-1.63-.83-1.66 0-2.76.6-3.06 1.4-.7 2.4.08 2.73.5q-.18-.29-1.13-2.6a2.1 2.1 0 0 1 .96-2.77c1.25-.58 2.43.15 2.73.8l1.27 2.8a37 37 0 0 1-.89-2.45c-.32-1.36.47-2.29.97-2.53.7-.33 2.14-.42 2.72.84z"/><path fill="url(#D)" d="M20.35 7.08c1.22 2.68 2.71 5.97 3.83 7.28.22-.5.2-1.36.45-3.44A2.03 2.03 0 0 1 27.06 9c1.47.3 1.92 1.8 1.87 2.34-.08.88-.08.85-.24 2.97-.23 3.09.96 5.43 1.07 8.08 0 5-4.38 7.45-7.44 7.45-2.45 0-4.9-1.57-5.82-2.36l-4.6-4.2a20 20 0 0 1-2.56-2.7c-1.66-2.27.74-3.83 2.1-3.44-.11-.08-.75-1.12-1.06-1.63-.83-1.66 0-2.76.6-3.06 1.4-.7 2.4.08 2.73.5q-.18-.29-1.13-2.6a2.1 2.1 0 0 1 .96-2.77c1.25-.58 2.43.15 2.73.8l1.27 2.8a37 37 0 0 1-.89-2.45c-.32-1.36.47-2.29.97-2.53.7-.33 2.14-.42 2.72.84z"/><path fill="url(#E)" d="M22.05 10.67c.75 1.53 1.5 2.9 2.13 3.66.07.67.12 1.05.28 1.63-1.26-1.27-2.49-4.03-2.41-5.3"/><path fill="url(#F)" fill-rule="evenodd" d="M4.13 16.9c.3 0 .53.24.53.54 0 .9.37 2.1 1.15 3.08A4.4 4.4 0 0 0 9.4 22.2a.54.54 0 0 1 0 1.08c-2 0-3.46-.9-4.42-2.08a6.3 6.3 0 0 1-1.38-3.76c0-.3.24-.54.54-.54" clip-rule="evenodd"/><path fill="url(#G)" fill-rule="evenodd" d="M4.13 16.9c.3 0 .53.24.53.54 0 .9.37 2.1 1.15 3.08A4.4 4.4 0 0 0 9.4 22.2a.54.54 0 0 1 0 1.08c-2 0-3.46-.9-4.42-2.08a6.3 6.3 0 0 1-1.38-3.76c0-.3.24-.54.54-.54" clip-rule="evenodd"/><path fill="url(#H)" fill-rule="evenodd" d="M4.13 16.9c.3 0 .53.24.53.54 0 .9.37 2.1 1.15 3.08A4.4 4.4 0 0 0 9.4 22.2a.54.54 0 0 1 0 1.08c-2 0-3.46-.9-4.42-2.08a6.3 6.3 0 0 1-1.38-3.76c0-.3.24-.54.54-.54" clip-rule="evenodd"/><path fill="url(#I)" fill-rule="evenodd" d="M2.45 18.82c.3 0 .54.24.54.54a4.43 4.43 0 0 0 4.43 4.47.54.54 0 0 1 0 1.07c-3.78 0-5.51-3.23-5.51-5.54 0-.3.24-.54.54-.54" clip-rule="evenodd"/><path fill="url(#J)" fill-rule="evenodd" d="M2.45 18.82c.3 0 .54.24.54.54a4.43 4.43 0 0 0 4.43 4.47.54.54 0 0 1 0 1.07c-3.78 0-5.51-3.23-5.51-5.54 0-.3.24-.54.54-.54" clip-rule="evenodd"/><path fill="url(#K)" fill-rule="evenodd" d="M22.64 9.85a.54.54 0 0 1-.55-.53c0-.9-.37-2.1-1.16-3.08a4.4 4.4 0 0 0-3.6-1.65.54.54 0 0 1 0-1.08c2-.01 3.47.88 4.43 2.05a6.3 6.3 0 0 1 1.41 3.75c0 .3-.24.54-.53.54" clip-rule="evenodd"/><path fill="url(#L)" fill-rule="evenodd" d="M22.64 9.85a.54.54 0 0 1-.55-.53c0-.9-.37-2.1-1.16-3.08a4.4 4.4 0 0 0-3.6-1.65.54.54 0 0 1 0-1.08c2-.01 3.47.88 4.43 2.05a6.3 6.3 0 0 1 1.41 3.75c0 .3-.24.54-.53.54" clip-rule="evenodd"/><path fill="url(#M)" fill-rule="evenodd" d="M24.3 7.92a.54.54 0 0 1-.54-.54 4.43 4.43 0 0 0-4.47-4.43.54.54 0 0 1 0-1.08c3.77-.02 5.53 3.2 5.55 5.5 0 .3-.24.55-.54.55" clip-rule="evenodd"/><path fill="url(#N)" fill-rule="evenodd" d="M24.3 7.92a.54.54 0 0 1-.54-.54 4.43 4.43 0 0 0-4.47-4.43.54.54 0 0 1 0-1.08c3.77-.02 5.53 3.2 5.55 5.5 0 .3-.24.55-.54.55" clip-rule="evenodd"/><g filter="url(#O)"><path stroke="#ffc339" stroke-linecap="round" stroke-width="2" d="M22.53 14.43a12.9 12.9 0 0 0-7.6 9.06"/></g><defs><radialGradient id="a" cx="0" cy="0" r="1" gradientTransform="rotate(60.1 -2.32 23.57)scale(21.052 13.753)" gradientUnits="userSpaceOnUse"><stop offset="0" stop-color="#ffc133"/><stop offset=".7" stop-color="#ffc53f"/><stop offset=".8" stop-color="#ffad3e"/><stop offset=".95" stop-color="#ec7d58"/></radialGradient><radialGradient id="b" cx="0" cy="0" r="1" gradientTransform="rotate(-93.01 23.64 -4.89)scale(12.4901 4.78491)" gradientUnits="userSpaceOnUse"><stop offset="0" stop-color="#ffe849"/><stop offset="1" stop-color="#ffe647" stop-opacity="0"/></radialGradient><radialGradient id="c" cx="0" cy="0" r="1" gradientTransform="rotate(99.68 10.11 16.69)scale(6.68903 2.56255)" gradientUnits="userSpaceOnUse"><stop offset="0" stop-color="#ffe849"/><stop offset="1" stop-color="#ffe647" stop-opacity="0"/></radialGradient><radialGradient id="d" cx="0" cy="0" r="1" gradientTransform="matrix(2.70547 0 0 10.9717 24.18 13.55)" gradientUnits="userSpaceOnUse"><stop stop-color="#ee9f2c"/><stop offset="1" stop-color="#ee9f2c" stop-opacity="0"/></radialGradient><radialGradient id="e" cx="0" cy="0" r="1" gradientTransform="rotate(-94.09 20.97 -2.9)scale(4.55371 3.16291)" gradientUnits="userSpaceOnUse"><stop stop-color="#ffc93d"/><stop offset="1" stop-color="#ffc33a" stop-opacity="0"/></radialGradient><radialGradient id="f" cx="0" cy="0" r="1" gradientTransform="rotate(151.02 10 8.4)scale(4.78668 9.6155)" gradientUnits="userSpaceOnUse"><stop offset=".56" stop-color="#f09d2e" stop-opacity="0"/><stop offset="1" stop-color="#f09d2e"/></radialGradient><radialGradient id="h" cx="0" cy="0" r="1" gradientTransform="matrix(3.125 -.75 1.65852 6.91053 21.82 7.09)" gradientUnits="userSpaceOnUse"><stop stop-color="#ffec4c"/><stop offset="1" stop-color="#ffec4c" stop-opacity="0"/></radialGradient><radialGradient id="i" cx="0" cy="0" r="1" gradientTransform="rotate(33.3 -1.72 30.7)scale(3.13745 2.43249)" gradientUnits="userSpaceOnUse"><stop stop-color="#d99f2b"/><stop offset="1" stop-color="#d99f2b" stop-opacity="0"/></radialGradient><radialGradient id="k" cx="0" cy="0" r="1" gradientTransform="rotate(149.15 7.45 8.71)scale(4.61415 9.62882)" gradientUnits="userSpaceOnUse"><stop offset=".56" stop-color="#f09d2e" stop-opacity="0"/><stop offset="1" stop-color="#f09d2e"/></radialGradient><radialGradient id="m" cx="0" cy="0" r="1" gradientTransform="rotate(-33.9 24.36 -24.46)scale(3.06215 9.32271)" gradientUnits="userSpaceOnUse"><stop stop-color="#ffec4c"/><stop offset="1" stop-color="#ffec4c" stop-opacity="0"/></radialGradient><radialGradient id="n" cx="0" cy="0" r="1" gradientTransform="matrix(3.5 -1.625 7.41995 15.9814 15.45 13.21)" gradientUnits="userSpaceOnUse"><stop offset=".6" stop-color="#f09d2e" stop-opacity="0"/><stop offset="1" stop-color="#f09d2e"/></radialGradient><radialGradient id="o" cx="0" cy="0" r="1" gradientTransform="rotate(32.6 -6.62 24.11)scale(3.19011 2.54257)" gradientUnits="userSpaceOnUse"><stop stop-color="#d99f2b"/><stop offset="1" stop-color="#d99f2b" stop-opacity="0"/></radialGradient><radialGradient id="q" cx="0" cy="0" r="1" gradientTransform="rotate(137.35 4.62 11.24)scale(3.82257 7.48534)" gradientUnits="userSpaceOnUse"><stop offset=".56" stop-color="#f09d2e" stop-opacity="0"/><stop offset="1" stop-color="#f09d2e"/></radialGradient><radialGradient id="s" cx="0" cy="0" r="1" gradientTransform="rotate(-12.3 68.1 -61.68)scale(2.91135 6.16703)" gradientUnits="userSpaceOnUse"><stop stop-color="#ffec4c"/><stop offset="1" stop-color="#ffec4c" stop-opacity="0"/></radialGradient><radialGradient id="t" cx="0" cy="0" r="1" gradientTransform="rotate(-40.22 29.78 -9.1)scale(4.04959 20.7029)" gradientUnits="userSpaceOnUse"><stop offset=".6" stop-color="#f09d2e" stop-opacity="0"/><stop offset="1" stop-color="#f09d2e"/></radialGradient><radialGradient id="u" cx="0" cy="0" r="1" gradientTransform="rotate(29.5 -18.31 24.31)scale(2.92865 2.20418)" gradientUnits="userSpaceOnUse"><stop stop-color="#d99f2b"/><stop offset="1" stop-color="#d99f2b" stop-opacity="0"/></radialGradient><radialGradient id="v" cx="0" cy="0" r="1" gradientTransform="rotate(-45.76 26.8 -4.23)scale(1.65743 7.48347)" gradientUnits="userSpaceOnUse"><stop stop-color="#a85300"/><stop offset=".82" stop-color="#a85300" stop-opacity="0"/></radialGradient><radialGradient id="w" cx="0" cy="0" r="1" gradientTransform="rotate(143.37 3.96 12.8)scale(3.75802 7.07093)" gradientUnits="userSpaceOnUse"><stop offset=".56" stop-color="#f09d2e" stop-opacity="0"/><stop offset="1" stop-color="#f09d2e"/></radialGradient><radialGradient id="x" cx="0" cy="0" r="1" gradientTransform="rotate(-9.98 109.29 -69.99)scale(3.09805 5.38208)" gradientUnits="userSpaceOnUse"><stop stop-color="#ffec4c"/><stop offset="1" stop-color="#ffec4c" stop-opacity="0"/></radialGradient><radialGradient id="y" cx="0" cy="0" r="1" gradientTransform="rotate(-34.31 40.48 -8.56)scale(4.01583 19.3881)" gradientUnits="userSpaceOnUse"><stop offset=".6" stop-color="#f09d2e" stop-opacity="0"/><stop offset="1" stop-color="#f09d2e"/></radialGradient><radialGradient id="z" cx="0" cy="0" r="1" gradientTransform="rotate(24.55 -35.1 27.64)scale(3.0057 1.99452)" gradientUnits="userSpaceOnUse"><stop stop-color="#d99f2b"/><stop offset="1" stop-color="#d99f2b" stop-opacity="0"/></radialGradient><radialGradient id="B" cx="0" cy="0" r="1" gradientTransform="rotate(129.01 8.99 11.97)scale(17.3747 28.0986)" gradientUnits="userSpaceOnUse"><stop offset=".87" stop-color="#f6814f" stop-opacity="0"/><stop offset="1" stop-color="#f7814f"/></radialGradient><radialGradient id="C" cx="0" cy="0" r="1" gradientTransform="rotate(76.3 2.07 19.3)scale(18.4633 20.2583)" gradientUnits="userSpaceOnUse"><stop offset=".85" stop-color="#f6814f" stop-opacity="0"/><stop offset="1" stop-color="#f7814f"/></radialGradient><radialGradient id="D" cx="0" cy="0" r="1" gradientTransform="rotate(64.44 5.9 23.46)scale(3.18689 2.84106)" gradientUnits="userSpaceOnUse"><stop stop-color="#d99f2b"/><stop offset="1" stop-color="#d99f2b" stop-opacity="0"/></radialGradient><radialGradient id="E" cx="0" cy="0" r="1" gradientTransform="rotate(149.25 10.3 10.42)scale(1.2136 3.75534)" gradientUnits="userSpaceOnUse"><stop offset=".2" stop-color="#b4813d"/><stop offset="1" stop-color="#b4813d" stop-opacity="0"/></radialGradient><radialGradient id="F" cx="0" cy="0" r="1" gradientTransform="rotate(62.07 -11.84 12.66)scale(5.31217 7.87818)" gradientUnits="userSpaceOnUse"><stop stop-color="#419ffd"/><stop offset="1" stop-color="#4b6dcb"/></radialGradient><radialGradient id="G" cx="0" cy="0" r="1" gradientTransform="matrix(.75 .03125 -.06577 1.57838 3.4 17.59)" gradientUnits="userSpaceOnUse"><stop stop-color="#5486c7"/><stop offset="1" stop-color="#5486c7" stop-opacity="0"/></radialGradient><radialGradient id="H" cx="0" cy="0" r="1" gradientTransform="rotate(111.8 -2.9 13.99)scale(.75729 2.22747)" gradientUnits="userSpaceOnUse"><stop stop-color="#5486c7"/><stop offset="1" stop-color="#5486c7" stop-opacity="0"/></radialGradient><radialGradient id="I" cx="0" cy="0" r="1" gradientTransform="rotate(94.71 -6.55 12.41)scale(4.2017 7.06475)" gradientUnits="userSpaceOnUse"><stop stop-color="#419ffd"/><stop offset="1" stop-color="#4b6dcb"/></radialGradient><radialGradient id="J" cx="0" cy="0" r="1" gradientTransform="rotate(2.38 -466.99 51.1)scale(.71604 1.50618)" gradientUnits="userSpaceOnUse"><stop stop-color="#5486c7"/><stop offset="1" stop-color="#5486c7" stop-opacity="0"/></radialGradient><radialGradient id="K" cx="0" cy="0" r="1" gradientTransform="rotate(60.2 7.23 17.14)scale(4.46319 6.61911)" gradientUnits="userSpaceOnUse"><stop stop-color="#419ffd"/><stop offset="1" stop-color="#4b6dcb"/></radialGradient><radialGradient id="L" cx="0" cy="0" r="1" gradientTransform="rotate(18.86 -3.6 52.16)scale(.64211 1.03351)" gradientUnits="userSpaceOnUse"><stop stop-color="#4d8ac1"/><stop offset="1" stop-color="#4d8ac1" stop-opacity="0"/></radialGradient><radialGradient id="M" cx="0" cy="0" r="1" gradientTransform="rotate(60.69 9.54 17.8)scale(5.54462 8.22505)" gradientUnits="userSpaceOnUse"><stop stop-color="#419ffd"/><stop offset="1" stop-color="#4b6dcb"/></radialGradient><radialGradient id="N" cx="0" cy="0" r="1" gradientTransform="rotate(18.85 2.38 57.27)scale(.61247 .98543)" gradientUnits="userSpaceOnUse"><stop stop-color="#4d8ac1"/><stop offset="1" stop-color="#4d8ac1" stop-opacity="0"/></radialGradient><linearGradient id="g" x1="20.38" x2="20.38" y1="15.8" y2="13.21" gradientUnits="userSpaceOnUse"><stop stop-color="#ffc337"/><stop offset="1" stop-color="#ffc337" stop-opacity="0"/></linearGradient><linearGradient id="j" x1="17.07" x2="18.64" y1="12.3" y2="11.55" gradientUnits="userSpaceOnUse"><stop stop-color="#a85300"/><stop offset=".82" stop-color="#a85300" stop-opacity="0"/></linearGradient><linearGradient id="l" x1="16" x2="16" y1="17.37" y2="14.74" gradientUnits="userSpaceOnUse"><stop stop-color="#ffc337"/><stop offset="1" stop-color="#ffc337" stop-opacity="0"/></linearGradient><linearGradient id="p" x1="13.36" x2="14.39" y1="13.84" y2="13.11" gradientUnits="userSpaceOnUse"><stop stop-color="#a85300"/><stop offset=".82" stop-color="#a85300" stop-opacity="0"/></linearGradient><linearGradient id="r" x1="13.44" x2="13.44" y1="20.57" y2="18.36" gradientUnits="userSpaceOnUse"><stop stop-color="#ffc337"/><stop offset="1" stop-color="#ffc337" stop-opacity="0"/></linearGradient><linearGradient id="A" x1="14.95" x2="12.43" y1="27.59" y2="22.44" gradientUnits="userSpaceOnUse"><stop stop-color="#ffc337"/><stop offset="1" stop-color="#ffc337" stop-opacity="0"/></linearGradient><filter id="O" width="13.61" height="15.06" x="11.92" y="11.43" color-interpolation-filters="sRGB" filterUnits="userSpaceOnUse"><feFlood flood-opacity="0" result="BackgroundImageFix"/><feBlend in="SourceGraphic" in2="BackgroundImageFix" result="shape"/><feGaussianBlur result="effect1_foregroundBlur_20020_1063" stdDeviation="1"/></filter></defs></svg>