<svg xmlns="http://www.w3.org/2000/svg" width="32" height="32" fill="none" viewBox="0 0 32 32"><circle cx="5.38" cy="22.25" r="1.55" fill="url(#a)"/><circle cx="26.63" cy="22.26" r="1.55" fill="url(#b)"/><circle cx="26.63" cy="22.26" r="1.55" fill="url(#c)"/><path fill="url(#d)" d="M9 12.08c-.6.9-1.03 2.13-1.18 2.6l2.34 1.68 1.8-2.26a13 13 0 0 0-1.9-2.44z"/><path fill="url(#e)" d="M9 12.08c-.6.9-1.03 2.13-1.18 2.6l2.34 1.68 1.8-2.26a13 13 0 0 0-1.9-2.44z"/><path fill="url(#f)" d="M23 12.08c.6.9 1.03 2.13 1.18 2.6l-2.34 1.68-1.8-2.26a13 13 0 0 1 1.9-2.44z"/><path fill="url(#g)" d="M23 12.08c.6.9 1.03 2.13 1.18 2.6l-2.34 1.68-1.8-2.26a13 13 0 0 1 1.9-2.44z"/><path fill="url(#h)" d="M23 12.08c.6.9 1.03 2.13 1.18 2.6l-2.34 1.68-1.8-2.26a13 13 0 0 1 1.9-2.44z"/><g filter="url(#i)"><path fill="url(#j)" d="m3.13 12.15 3.1 15.16c.15.75.8 1.28 1.57 1.28h16.4a1.6 1.6 0 0 0 1.57-1.28l3.1-15.16-.99-.48a132 132 0 0 1-5.4 3.77c-.63.39-1.22-.24-1.34-.42a160 160 0 0 0-3.46-4.87c-.65-.86-1.4-1.28-1.68-1.32-.29.04-1.03.46-1.68 1.32-.64.84-2.34 3.23-3.46 4.87-.12.18-.7.8-1.35.42-.8-.48-3.9-2.7-5.4-3.77z"/><path fill="url(#k)" d="m3.13 12.15 3.1 15.16c.15.75.8 1.28 1.57 1.28h16.4a1.6 1.6 0 0 0 1.57-1.28l3.1-15.16-.99-.48a132 132 0 0 1-5.4 3.77c-.63.39-1.22-.24-1.34-.42a160 160 0 0 0-3.46-4.87c-.65-.86-1.4-1.28-1.68-1.32-.29.04-1.03.46-1.68 1.32-.64.84-2.34 3.23-3.46 4.87-.12.18-.7.8-1.35.42-.8-.48-3.9-2.7-5.4-3.77z"/></g><path fill="url(#l)" d="m3.13 12.15 3.1 15.16c.15.75.8 1.28 1.57 1.28h16.4a1.6 1.6 0 0 0 1.57-1.28l3.1-15.16-.99-.48a132 132 0 0 1-5.4 3.77c-.63.39-1.22-.24-1.34-.42a160 160 0 0 0-3.46-4.87c-.65-.86-1.4-1.28-1.68-1.32-.29.04-1.03.46-1.68 1.32-.64.84-2.34 3.23-3.46 4.87-.12.18-.7.8-1.35.42-.8-.48-3.9-2.7-5.4-3.77z"/><path fill="url(#m)" d="m3.13 12.15 3.1 15.16c.15.75.8 1.28 1.57 1.28h16.4a1.6 1.6 0 0 0 1.57-1.28l3.1-15.16-.99-.48a132 132 0 0 1-5.4 3.77c-.63.39-1.22-.24-1.34-.42a160 160 0 0 0-3.46-4.87c-.65-.86-1.4-1.28-1.68-1.32-.29.04-1.03.46-1.68 1.32-.64.84-2.34 3.23-3.46 4.87-.12.18-.7.8-1.35.42-.8-.48-3.9-2.7-5.4-3.77z"/><path fill="url(#n)" d="m3.13 12.15 3.1 15.16c.15.75.8 1.28 1.57 1.28h16.4a1.6 1.6 0 0 0 1.57-1.28l3.1-15.16-.99-.48a132 132 0 0 1-5.4 3.77c-.63.39-1.22-.24-1.34-.42a160 160 0 0 0-3.46-4.87c-.65-.86-1.4-1.28-1.68-1.32-.29.04-1.03.46-1.68 1.32-.64.84-2.34 3.23-3.46 4.87-.12.18-.7.8-1.35.42-.8-.48-3.9-2.7-5.4-3.77z"/><path fill="url(#o)" d="m3.13 12.15 3.1 15.16c.15.75.8 1.28 1.57 1.28h16.4a1.6 1.6 0 0 0 1.57-1.28l3.1-15.16-.99-.48a132 132 0 0 1-5.4 3.77c-.63.39-1.22-.24-1.34-.42a160 160 0 0 0-3.46-4.87c-.65-.86-1.4-1.28-1.68-1.32-.29.04-1.03.46-1.68 1.32-.64.84-2.34 3.23-3.46 4.87-.12.18-.7.8-1.35.42-.8-.48-3.9-2.7-5.4-3.77z"/><path fill="url(#p)" d="m3.13 12.15 3.1 15.16c.15.75.8 1.28 1.57 1.28h16.4a1.6 1.6 0 0 0 1.57-1.28l3.1-15.16-.99-.48a132 132 0 0 1-5.4 3.77c-.63.39-1.22-.24-1.34-.42a160 160 0 0 0-3.46-4.87c-.65-.86-1.4-1.28-1.68-1.32-.29.04-1.03.46-1.68 1.32-.64.84-2.34 3.23-3.46 4.87-.12.18-.7.8-1.35.42-.8-.48-3.9-2.7-5.4-3.77z"/><path fill="url(#q)" d="m3.13 12.15 3.1 15.16c.15.75.8 1.28 1.57 1.28h16.4a1.6 1.6 0 0 0 1.57-1.28l3.1-15.16-.99-.48a132 132 0 0 1-5.4 3.77c-.63.39-1.22-.24-1.34-.42a160 160 0 0 0-3.46-4.87c-.65-.86-1.4-1.28-1.68-1.32-.29.04-1.03.46-1.68 1.32-.64.84-2.34 3.23-3.46 4.87-.12.18-.7.8-1.35.42-.8-.48-3.9-2.7-5.4-3.77z"/><g filter="url(#r)"><path fill="url(#s)" d="M23.78 22.74a1.5 1.5 0 0 1-1.93.96c-.62-.25-.88-.95-.62-1.77.27-.81 1.1-1.28 1.61-1.11.81.26 1.2 1.1.94 1.92"/><path fill="url(#t)" d="M23.78 22.74a1.5 1.5 0 0 1-1.93.96c-.62-.25-.88-.95-.62-1.77.27-.81 1.1-1.28 1.61-1.11.81.26 1.2 1.1.94 1.92"/></g><g filter="url(#u)"><path fill="url(#v)" d="M8.3 22.74a1.5 1.5 0 0 0 1.93.96c.61-.25.88-.95.61-1.77-.26-.81-1.1-1.28-1.6-1.11a1.5 1.5 0 0 0-.94 1.92"/><path fill="url(#w)" d="M8.3 22.74a1.5 1.5 0 0 0 1.93.96c.61-.25.88-.95.61-1.77-.26-.81-1.1-1.28-1.6-1.11a1.5 1.5 0 0 0-.94 1.92"/></g><path fill="url(#x)" d="M4.92 11.92a1.4 1.4 0 1 1-2.78 0 1.4 1.4 0 0 1 2.78 0"/><path fill="url(#y)" d="M4.92 11.92a1.4 1.4 0 1 1-2.78 0 1.4 1.4 0 0 1 2.78 0"/><path fill="url(#z)" d="M4.92 11.92a1.4 1.4 0 1 1-2.78 0 1.4 1.4 0 0 1 2.78 0"/><path fill="url(#A)" d="M4.92 11.92a1.4 1.4 0 1 1-2.78 0 1.4 1.4 0 0 1 2.78 0"/><path fill="url(#B)" d="M10.28 12.18a1.39 1.39 0 1 0-1.35.03 1 1 0 0 1 .41-.02c.22.06.57.14.94-.01"/><path fill="url(#C)" d="M10.28 12.18a1.39 1.39 0 1 0-1.35.03 1 1 0 0 1 .41-.02c.22.06.57.14.94-.01"/><path fill="url(#D)" d="M10.28 12.18a1.39 1.39 0 1 0-1.35.03 1 1 0 0 1 .41-.02c.22.06.57.14.94-.01"/><path fill="url(#E)" d="M10.28 12.18a1.39 1.39 0 1 0-1.35.03 1 1 0 0 1 .41-.02c.22.06.57.14.94-.01"/><g filter="url(#F)"><path fill="url(#G)" d="M21.72 12.18a1.39 1.39 0 1 1 1.35.03 1 1 0 0 0-.41-.02c-.22.06-.57.14-.94-.01"/><path fill="url(#H)" d="M21.72 12.18a1.39 1.39 0 1 1 1.35.03 1 1 0 0 0-.41-.02c-.22.06-.57.14-.94-.01"/></g><g filter="url(#I)"><circle cx="16.04" cy="22.33" r="2.47" fill="url(#J)"/></g><g stroke-width=".15" filter="url(#K)"><path stroke="url(#L)" d="M16.21 9.36c.17-.03.61.06 1 .59.39.52 2.75 3.88 3.88 5.5.21.34.86.87 1.7.3s3.53-2.53 4.55-3.2"/><path stroke="url(#M)" d="M16.21 9.36c.17-.03.61.06 1 .59.39.52 2.75 3.88 3.88 5.5.21.34.86.87 1.7.3s3.53-2.53 4.55-3.2"/></g><circle cx="16" cy="7.65" r="1.8" fill="url(#N)"/><circle cx="16" cy="7.65" r="1.8" fill="url(#O)"/><circle cx="16" cy="7.65" r="1.8" fill="url(#P)"/><circle cx="16" cy="7.65" r="1.8" fill="url(#Q)"/><path fill="url(#R)" d="M29.92 11.92a1.4 1.4 0 1 1-2.78 0 1.4 1.4 0 0 1 2.78 0"/><path fill="url(#S)" d="M29.92 11.92a1.4 1.4 0 1 1-2.78 0 1.4 1.4 0 0 1 2.78 0"/><path fill="url(#T)" d="M29.92 11.92a1.4 1.4 0 1 1-2.78 0 1.4 1.4 0 0 1 2.78 0"/><path fill="url(#U)" d="M29.92 11.92a1.4 1.4 0 1 1-2.78 0 1.4 1.4 0 0 1 2.78 0"/><defs><radialGradient id="a" cx="0" cy="0" r="1" gradientTransform="rotate(256.46 11.85 9.5)scale(1.75182 2.1567)" gradientUnits="userSpaceOnUse"><stop stop-color="#395de0"/><stop offset="1" stop-color="#2c68a3"/></radialGradient><radialGradient id="b" cx="0" cy="0" r="1" gradientTransform="rotate(108.74 6.28 20.38)scale(2.99062)" gradientUnits="userSpaceOnUse"><stop offset=".25" stop-color="#3db3f3"/><stop offset="1" stop-color="#5b73f4"/></radialGradient><radialGradient id="c" cx="0" cy="0" r="1" gradientTransform="rotate(161.16 12.25 13.16)scale(1.4033 .88972)" gradientUnits="userSpaceOnUse"><stop offset=".26" stop-color="#5fbeff"/><stop offset="1" stop-color="#5fbeff" stop-opacity="0"/></radialGradient><radialGradient id="d" cx="0" cy="0" r="1" gradientTransform="rotate(15.95 -44.08 37.7)scale(3.18505 7.94974)" gradientUnits="userSpaceOnUse"><stop stop-color="#fbc96e"/><stop offset="1" stop-color="#fac567"/></radialGradient><radialGradient id="e" cx="0" cy="0" r="1" gradientTransform="rotate(203.25 6.73 6.04)scale(2.41481 7.26267)" gradientUnits="userSpaceOnUse"><stop offset=".77" stop-color="#d89f3a" stop-opacity="0"/><stop offset=".91" stop-color="#daa139"/></radialGradient><radialGradient id="f" cx="0" cy="0" r="1" gradientTransform="rotate(234.54 15.93 1.6)scale(2.53202 2.59683)" gradientUnits="userSpaceOnUse"><stop offset=".25" stop-color="#bf812a"/><stop offset="1" stop-color="#ce9333"/></radialGradient><radialGradient id="g" cx="0" cy="0" r="1" gradientTransform="rotate(-23.1 45.87 -46.52)scale(2.19118 5.70837)" gradientUnits="userSpaceOnUse"><stop offset=".73" stop-color="#e9bb61" stop-opacity="0"/><stop offset=".93" stop-color="#e9bb61"/></radialGradient><radialGradient id="h" cx="0" cy="0" r="1" gradientTransform="rotate(217.08 14.1 3.55)scale(3.4469 5.81507)" gradientUnits="userSpaceOnUse"><stop offset=".77" stop-color="#c18739" stop-opacity="0"/><stop offset=".95" stop-color="#c18739"/></radialGradient><radialGradient id="k" cx="0" cy="0" r="1" gradientTransform="rotate(-69.42 29.06 7.17)scale(11.0026 21.4146)" gradientUnits="userSpaceOnUse"><stop stop-color="#f67b4e"/><stop offset="1" stop-color="#f67b4e" stop-opacity="0"/></radialGradient><radialGradient id="o" cx="0" cy="0" r="1" gradientTransform="rotate(113.39 9.96 15.42)scale(2.51945 2.08843)" gradientUnits="userSpaceOnUse"><stop offset=".38" stop-color="#dd9049"/><stop offset="1" stop-color="#f8bf60" stop-opacity="0"/></radialGradient><radialGradient id="p" cx="0" cy="0" r="1" gradientTransform="rotate(64.22 -7.97 9.5)scale(2.04759 1.11998)" gradientUnits="userSpaceOnUse"><stop offset=".2" stop-color="#d7783d"/><stop offset="1" stop-color="#d7783d" stop-opacity="0"/></radialGradient><radialGradient id="q" cx="0" cy="0" r="1" gradientTransform="matrix(.28125 1.1328 -2.4807 .6159 16 8.83)" gradientUnits="userSpaceOnUse"><stop offset=".38" stop-color="#d48c33"/><stop offset="1" stop-color="#feb16a" stop-opacity="0"/></radialGradient><radialGradient id="s" cx="0" cy="0" r="1" gradientTransform="rotate(-51.58 34.88 -11.27)scale(2.31334 1.4927)" gradientUnits="userSpaceOnUse"><stop stop-color="#ff196c"/><stop offset="1" stop-color="#ff1f4a"/></radialGradient><radialGradient id="t" cx="0" cy="0" r="1" gradientTransform="rotate(149.74 8.86 14.11)scale(1.73656 1.09996)" gradientUnits="userSpaceOnUse"><stop offset=".22" stop-color="#ff5873"/><stop offset="1" stop-color="#ff5873" stop-opacity="0"/></radialGradient><radialGradient id="v" cx="0" cy="0" r="1" gradientTransform="rotate(255.72 13.9 7.75)scale(1.77356 1.69812)" gradientUnits="userSpaceOnUse"><stop stop-color="#f6196c"/><stop offset="1" stop-color="#e42047"/></radialGradient><radialGradient id="w" cx="0" cy="0" r="1" gradientTransform="rotate(155.73 2.9 12.16)scale(.87416 .7657)" gradientUnits="userSpaceOnUse"><stop stop-color="#fe536f"/><stop offset="1" stop-color="#fe536f" stop-opacity="0"/></radialGradient><radialGradient id="x" cx="0" cy="0" r="1" gradientTransform="rotate(135.2 .07 6.45)scale(2.97287 3.09287)" gradientUnits="userSpaceOnUse"><stop offset=".17" stop-color="#e7c04e"/><stop offset="1" stop-color="#d9972a"/></radialGradient><radialGradient id="y" cx="0" cy="0" r="1" gradientTransform="rotate(-71.33 11.01 4.5)scale(1.65959 1.79772)" gradientUnits="userSpaceOnUse"><stop offset=".06" stop-color="#df8089"/><stop offset="1" stop-color="#df8089" stop-opacity="0"/></radialGradient><radialGradient id="z" cx="0" cy="0" r="1" gradientTransform="rotate(141.02 .43 6.36)scale(1.40706 .72713)" gradientUnits="userSpaceOnUse"><stop stop-color="#ffde71"/><stop offset="1" stop-color="#ffde71" stop-opacity="0"/></radialGradient><radialGradient id="A" cx="0" cy="0" r="1" gradientTransform="matrix(-1.875 0 0 -1.94872 4.02 12.01)" gradientUnits="userSpaceOnUse"><stop offset=".49" stop-color="#e1ad3d" stop-opacity="0"/><stop offset="1" stop-color="#b9894b"/></radialGradient><radialGradient id="B" cx="0" cy="0" r="1" gradientTransform="rotate(136.3 3.34 7.15)scale(2.91757 3.03227)" gradientUnits="userSpaceOnUse"><stop offset=".17" stop-color="#e7c04e"/><stop offset="1" stop-color="#d9972a"/></radialGradient><radialGradient id="C" cx="0" cy="0" r="1" gradientTransform="rotate(142.1 3.68 6.9)scale(1.38624 .71013)" gradientUnits="userSpaceOnUse"><stop stop-color="#ffde71"/><stop offset="1" stop-color="#ffde71" stop-opacity="0"/></radialGradient><radialGradient id="D" cx="0" cy="0" r="1" gradientTransform="rotate(-76.8 12.63 .17)scale(1.29998 1.7338)" gradientUnits="userSpaceOnUse"><stop stop-color="#e4a122"/><stop offset="1" stop-color="#e4a122" stop-opacity="0"/></radialGradient><radialGradient id="E" cx="0" cy="0" r="1" gradientTransform="translate(10.06 11.01)scale(-1.875)" gradientUnits="userSpaceOnUse"><stop offset=".49" stop-color="#e1ad3d" stop-opacity="0"/><stop offset="1" stop-color="#b9894b"/></radialGradient><radialGradient id="G" cx="0" cy="0" r="1" gradientTransform="rotate(136.32 9.64 9.94)scale(2.39817 2.49246)" gradientUnits="userSpaceOnUse"><stop offset=".17" stop-color="#f0c950"/><stop offset="1" stop-color="#c8861f"/></radialGradient><radialGradient id="H" cx="0" cy="0" r="1" gradientTransform="rotate(147.14 10.33 8.59)scale(1.33929 .68608)" gradientUnits="userSpaceOnUse"><stop offset=".18" stop-color="#ffde71"/><stop offset="1" stop-color="#ffde71" stop-opacity="0"/></radialGradient><radialGradient id="J" cx="0" cy="0" r="1" gradientTransform="rotate(138.16 4.44 14.05)scale(2.81059)" gradientUnits="userSpaceOnUse"><stop stop-color="#5fbfff"/><stop offset="1" stop-color="#3e94ff"/></radialGradient><radialGradient id="M" cx="0" cy="0" r="1" gradientTransform="rotate(-34.67 37.5 -27.95)scale(6.49725 1.74022)" gradientUnits="userSpaceOnUse"><stop offset=".29" stop-color="#ffd175"/><stop offset="1" stop-color="#ffd175" stop-opacity="0"/></radialGradient><radialGradient id="N" cx="0" cy="0" r="1" gradientTransform="rotate(125.6 7 7.8)scale(3.43521 2.91657)" gradientUnits="userSpaceOnUse"><stop offset=".38" stop-color="#f3d154"/><stop offset="1" stop-color="#cc9848"/></radialGradient><radialGradient id="O" cx="0" cy="0" r="1" gradientTransform="rotate(-79.31 13.53 -4.72)scale(1.83257 2.17841)" gradientUnits="userSpaceOnUse"><stop stop-color="#e78f5e"/><stop offset="1" stop-color="#e78f5e" stop-opacity="0"/></radialGradient><radialGradient id="P" cx="0" cy="0" r="1" gradientTransform="rotate(213.28 9.6 1.62)scale(3.58831 4.29179)" gradientUnits="userSpaceOnUse"><stop offset=".56" stop-color="#e9c251" stop-opacity="0"/><stop offset="1" stop-color="#b49858"/></radialGradient><radialGradient id="Q" cx="0" cy="0" r="1" gradientTransform="rotate(156.06 8.3 5.34)scale(1.9831 1.52608)" gradientUnits="userSpaceOnUse"><stop stop-color="#ffed77"/><stop offset="1" stop-color="#ffed77" stop-opacity="0"/></radialGradient><radialGradient id="R" cx="0" cy="0" r="1" gradientTransform="rotate(135.2 12.57 11.6)scale(2.97287 3.09287)" gradientUnits="userSpaceOnUse"><stop offset=".17" stop-color="#f8cb54"/><stop offset="1" stop-color="#eaa34b"/></radialGradient><radialGradient id="S" cx="0" cy="0" r="1" gradientTransform="rotate(-71.33 23.51 -12.9)scale(1.65959 2.24326)" gradientUnits="userSpaceOnUse"><stop offset=".16" stop-color="#f1907c"/><stop offset="1" stop-color="#f1907c" stop-opacity="0"/></radialGradient><radialGradient id="T" cx="0" cy="0" r="1" gradientTransform="rotate(141.02 12.93 10.79)scale(1.40706 .72713)" gradientUnits="userSpaceOnUse"><stop stop-color="#ffde71"/><stop offset="1" stop-color="#ffde71" stop-opacity="0"/></radialGradient><radialGradient id="U" cx="0" cy="0" r="1" gradientTransform="matrix(-1.875 0 0 -1.94872 29.02 12.01)" gradientUnits="userSpaceOnUse"><stop offset=".49" stop-color="#e0a444" stop-opacity="0"/><stop offset="1" stop-color="#c6924d"/></radialGradient><filter id="i" width="26.55" height="19.86" x="2.73" y="8.73" color-interpolation-filters="sRGB" filterUnits="userSpaceOnUse"><feFlood flood-opacity="0" result="BackgroundImageFix"/><feBlend in="SourceGraphic" in2="BackgroundImageFix" result="shape"/><feColorMatrix in="SourceAlpha" result="hardAlpha" values="0 0 0 0 0 0 0 0 0 0 0 0 0 0 0 0 0 0 127 0"/><feOffset dx=".4" dy="-.1"/><feGaussianBlur stdDeviation=".25"/><feComposite in2="hardAlpha" k2="-1" k3="1" operator="arithmetic"/><feColorMatrix values="0 0 0 0 0.803922 0 0 0 0 0.580392 0 0 0 0 0.262745 0 0 0 1 0"/><feBlend in2="shape" result="effect1_innerShadow_18_17387"/><feColorMatrix in="SourceAlpha" result="hardAlpha" values="0 0 0 0 0 0 0 0 0 0 0 0 0 0 0 0 0 0 127 0"/><feOffset dx="-.4" dy="-.1"/><feGaussianBlur stdDeviation=".25"/><feComposite in2="hardAlpha" k2="-1" k3="1" operator="arithmetic"/><feColorMatrix values="0 0 0 0 0.894118 0 0 0 0 0.686275 0 0 0 0 0.301961 0 0 0 1 0"/><feBlend in2="effect1_innerShadow_18_17387" result="effect2_innerShadow_18_17387"/></filter><filter id="r" width="4.23" height="4.5" x="20.13" y="20.28" color-interpolation-filters="sRGB" filterUnits="userSpaceOnUse"><feFlood flood-opacity="0" result="BackgroundImageFix"/><feColorMatrix in="SourceAlpha" result="hardAlpha" values="0 0 0 0 0 0 0 0 0 0 0 0 0 0 0 0 0 0 127 0"/><feOffset dx="-.25" dy=".25"/><feGaussianBlur stdDeviation=".38"/><feComposite in2="hardAlpha" operator="out"/><feColorMatrix values="0 0 0 0 1 0 0 0 0 0.54902 0 0 0 0 0.305882 0 0 0 1 0"/><feBlend in2="BackgroundImageFix" result="effect1_dropShadow_18_17387"/><feBlend in="SourceGraphic" in2="effect1_dropShadow_18_17387" result="shape"/><feColorMatrix in="SourceAlpha" result="hardAlpha" values="0 0 0 0 0 0 0 0 0 0 0 0 0 0 0 0 0 0 127 0"/><feOffset dx=".15" dy="-.15"/><feGaussianBlur stdDeviation=".25"/><feComposite in2="hardAlpha" k2="-1" k3="1" operator="arithmetic"/><feColorMatrix values="0 0 0 0 0.984314 0 0 0 0 0.219608 0 0 0 0 0.254902 0 0 0 1 0"/><feBlend in2="shape" result="effect2_innerShadow_18_17387"/></filter><filter id="u" width="4.23" height="4.5" x="7.21" y="20.28" color-interpolation-filters="sRGB" filterUnits="userSpaceOnUse"><feFlood flood-opacity="0" result="BackgroundImageFix"/><feColorMatrix in="SourceAlpha" result="hardAlpha" values="0 0 0 0 0 0 0 0 0 0 0 0 0 0 0 0 0 0 127 0"/><feOffset dx="-.25" dy=".25"/><feGaussianBlur stdDeviation=".38"/><feComposite in2="hardAlpha" operator="out"/><feColorMatrix values="0 0 0 0 0.905882 0 0 0 0 0.439216 0 0 0 0 0.278431 0 0 0 1 0"/><feBlend in2="BackgroundImageFix" result="effect1_dropShadow_18_17387"/><feBlend in="SourceGraphic" in2="effect1_dropShadow_18_17387" result="shape"/><feColorMatrix in="SourceAlpha" result="hardAlpha" values="0 0 0 0 0 0 0 0 0 0 0 0 0 0 0 0 0 0 127 0"/><feOffset dx=".3" dy=".3"/><feGaussianBlur stdDeviation=".3"/><feComposite in2="hardAlpha" k2="-1" k3="1" operator="arithmetic"/><feColorMatrix values="0 0 0 0 0.796078 0 0 0 0 0.141176 0 0 0 0 0.223529 0 0 0 1 0"/><feBlend in2="shape" result="effect2_innerShadow_18_17387"/></filter><filter id="F" width="2.78" height="2.68" x="21.03" y="9.59" color-interpolation-filters="sRGB" filterUnits="userSpaceOnUse"><feFlood flood-opacity="0" result="BackgroundImageFix"/><feBlend in="SourceGraphic" in2="BackgroundImageFix" result="shape"/><feColorMatrix in="SourceAlpha" result="hardAlpha" values="0 0 0 0 0 0 0 0 0 0 0 0 0 0 0 0 0 0 127 0"/><feOffset/><feGaussianBlur stdDeviation=".13"/><feComposite in2="hardAlpha" k2="-1" k3="1" operator="arithmetic"/><feColorMatrix values="0 0 0 0 0.756863 0 0 0 0 0.619608 0 0 0 0 0.321569 0 0 0 1 0"/><feBlend in2="shape" result="effect1_innerShadow_18_17387"/></filter><filter id="I" width="7.44" height="7.44" x="11.82" y="19.11" color-interpolation-filters="sRGB" filterUnits="userSpaceOnUse"><feFlood flood-opacity="0" result="BackgroundImageFix"/><feColorMatrix in="SourceAlpha" result="hardAlpha" values="0 0 0 0 0 0 0 0 0 0 0 0 0 0 0 0 0 0 127 0"/><feOffset dx="-.5" dy=".5"/><feGaussianBlur stdDeviation=".63"/><feComposite in2="hardAlpha" operator="out"/><feColorMatrix values="0 0 0 0 0.937255 0 0 0 0 0.443137 0 0 0 0 0.376471 0 0 0 1 0"/><feBlend in2="BackgroundImageFix" result="effect1_dropShadow_18_17387"/><feBlend in="SourceGraphic" in2="effect1_dropShadow_18_17387" result="shape"/><feColorMatrix in="SourceAlpha" result="hardAlpha" values="0 0 0 0 0 0 0 0 0 0 0 0 0 0 0 0 0 0 127 0"/><feOffset dx=".75" dy="-.75"/><feGaussianBlur stdDeviation=".75"/><feComposite in2="hardAlpha" k2="-1" k3="1" operator="arithmetic"/><feColorMatrix values="0 0 0 0 0.313726 0 0 0 0 0.384314 0 0 0 0 1 0 0 0 1 0"/><feBlend in2="shape" result="effect2_innerShadow_18_17387"/></filter><filter id="K" width="11.48" height="7.1" x="16.05" y="9.13" color-interpolation-filters="sRGB" filterUnits="userSpaceOnUse"><feFlood flood-opacity="0" result="BackgroundImageFix"/><feBlend in="SourceGraphic" in2="BackgroundImageFix" result="shape"/><feGaussianBlur result="effect1_foregroundBlur_18_17387" stdDeviation=".07"/></filter><linearGradient id="j" x1="23.21" x2="5.54" y1="20.58" y2="24.7" gradientUnits="userSpaceOnUse"><stop stop-color="#ffbc5d"/><stop offset=".3" stop-color="#fcad6a"/><stop offset="1" stop-color="#cb7547"/></linearGradient><linearGradient id="l" x1="5.28" x2="8" y1="24.28" y2="23.72" gradientUnits="userSpaceOnUse"><stop stop-color="#c2794c"/><stop offset="1" stop-color="#e07648" stop-opacity="0"/></linearGradient><linearGradient id="m" x1="26.63" x2="22" y1="26.03" y2="24.97" gradientUnits="userSpaceOnUse"><stop offset=".13" stop-color="#ffbb5b"/><stop offset="1" stop-color="#ffbb5b" stop-opacity="0"/></linearGradient><linearGradient id="n" x1="17.44" x2="17.44" y1="28.87" y2="27.68" gradientUnits="userSpaceOnUse"><stop offset=".18" stop-color="#ff6f8c"/><stop offset="1" stop-color="#ff7a6a" stop-opacity="0"/></linearGradient><linearGradient id="L" x1="16.21" x2="22.55" y1="9.15" y2="17.15" gradientUnits="userSpaceOnUse"><stop stop-color="#ffd678"/><stop offset="1" stop-color="#ffd678" stop-opacity="0"/></linearGradient></defs></svg>